<?xml version="1.0" encoding="utf-8"?>
<!-- Generator: Adobe Illustrator 15.1.0, SVG Export Plug-In . SVG Version: 6.00 Build 0)  -->
<!DOCTYPE svg PUBLIC "-//W3C//DTD SVG 1.1//EN" "http://www.w3.org/Graphics/SVG/1.1/DTD/svg11.dtd">
<svg version="1.1" id="Layer_1" xmlns="http://www.w3.org/2000/svg" xmlns:xlink="http://www.w3.org/1999/xlink" x="0px" y="0px"
	 viewBox="0 0 40.728 41.448" enable-background="new 0 0 40.728 41.448" xml:space="preserve">
<g>
	<g>
		<path fill="#FF4924" d="M40.107,13.946c-0.578-1.988-1.895-6.488-11.738-10.172C18.524,0.091,13.178,0.111,9.597,3.543
			c0,0-2.043,1.729-3.304,2.908c-7.286,6.813-5.342,16.736-4.951,19.41c0.644,4.428,3.021,10.414,6.896,12.775
			C9.768,39.567,12.754,39.69,15.01,40c2.66,0.363,3.562,1.739,6.581,1.393c5.206-0.596,8.75-3.345,11.78-6.892
			C38.513,28.482,42.262,21.363,40.107,13.946z"/>
		<path fill="#BD4924" d="M20.067,3.861c0,0,5.802,2.317,8.809,2.299c3.009-0.014-1.163-1.252-1.163-1.252s-3.207-1.774-5.642-1.884
			C19.641,2.914,18.85,3.406,20.067,3.861z"/>
		<path fill="#604921" d="M24.665,5.438c-0.189-0.168,1.401-2.312,1.96-2.736c0.557-0.426,1.148-1.68,1.297-2.158
			c0.147-0.482,0.874-0.299,0.98,0.136c0.109,0.431,0.184,1.108-0.2,1.473s-2.641,2.226-2.73,3.465
			C25.972,5.616,25.109,5.832,24.665,5.438z"/>
	</g>
	<g>
		<path fill="#E64924" d="M1.342,25.861c0.08,0.551,0.187,1.127,0.32,1.716c0.939,4.146,3.182,8.993,6.576,11.06
			C9.768,39.567,12.754,39.69,15.01,40c2.66,0.363,3.562,1.739,6.581,1.393c2.97-0.34,5.398-1.381,7.5-2.87
			c1.582-1.121,2.979-2.497,4.28-4.021c2.552-2.987-9.925,1.787-19.318,0.342C4.353,33.353,1.133,24.433,1.342,25.861z"/>
		<path fill="#BD4924" d="M20.067,3.861c0,0,5.802,2.317,8.809,2.299c3.009-0.014-1.163-1.252-1.163-1.252s-3.207-1.774-5.642-1.884
			C19.641,2.914,18.85,3.406,20.067,3.861z"/>
		<path fill="#604921" d="M24.665,5.438c-0.189-0.168,1.401-2.312,1.96-2.736c0.557-0.426,1.148-1.68,1.297-2.158
			c0.147-0.482,0.874-0.299,0.98,0.136c0.109,0.431,0.184,1.108-0.2,1.473s-2.641,2.226-2.73,3.465
			C25.972,5.616,25.109,5.832,24.665,5.438z"/>
	</g>
</g>
</svg>
