<?xml version="1.0" encoding="utf-8"?>
<!-- Generator: Adobe Illustrator 15.1.0, SVG Export Plug-In . SVG Version: 6.00 Build 0)  -->
<!DOCTYPE svg PUBLIC "-//W3C//DTD SVG 1.1//EN" "http://www.w3.org/Graphics/SVG/1.1/DTD/svg11.dtd">
<svg version="1.1" id="Layer_1" xmlns="http://www.w3.org/2000/svg" xmlns:xlink="http://www.w3.org/1999/xlink" x="0px" y="0px"
	 width="200px" height="200px" viewBox="0 0 200 200" enable-background="new 0 0 200 200" xml:space="preserve">
<g>
	<path fill="#FCF0C2" d="M66.367,141.565c0,0-2.258-0.075-2.422,1.536c0,0-0.273,0.566,1.242,0.71c0,0-0.497,0.712,0.628,0.865
		c1.126,0.156,8.183,2.795,17.588-2.073c9.407-4.864,21.288-11.939,27.513-21.191c0,0,23.154,0.087,31.187-4.701
		c8.033-4.788,8.811-7.175,8.811-7.175s1.17-0.899,1.315-1.79c0,0,0.42-1.209,0.414-1.842c0,0,2.475-1.334-0.568-2.017
		c-3.039-0.672-28.851,1.405-28.851,1.405l-2.885-0.15l-14.287-6.583l-3.243,0.002l-4.411,3.509l-3.536,1.538l-5.002-0.778
		l-7.207-3.251l-1.626-0.214c0,0,0.055,3.343,4.512,4.628c0,0,5.626,10.108,15.957,4.577c0,0-6.144,9.256-9.74,12.065
		c-3.594,2.811-12.349,9.323-14.097,10.433c-1.748,1.111-2.823,2.66-4.257,3.888s-4.339,3.626-5.016,4.056
		C67.708,139.442,66.367,141.565,66.367,141.565z"/>
	<path fill="#FCDE21" d="M110.229,81.349c0,0-2.328,4.801-3.714,8.847c-1.388,4.042-4.732,12.97-13.582,12.739
		c0,0-6.691,0.929-5.803-3.908c0.883-4.831,4.313-15.869,4.313-15.869s0.177-1.48,0.292-2.975c0.111-1.499,0.521-3.474,0.565-3.682
		c0.043-0.208-0.188-0.95-0.81-0.433c0,0-0.799-0.323-1.126,0.001c-0.329,0.327-0.884,0.382-0.598-0.566
		c0.283-0.953-0.955-0.759-0.955-0.759s-0.59-1.113-1.41-0.354c-0.824,0.762-2.96,3.188-4.083,4.968
		c-1.122,1.782-9.674,17.833,1.398,22.844c11.071,5.01,15.956-0.289,18.561-3.188c0,0-1.932,3.776,1.62,4.605
		c3.552,0.831,15.443,1.524,15.443,1.524s-0.483-0.105-0.014-1.234c0.466-1.131,3.979-9.709,2.707-13.764
		c-1.27-4.057-1.912-5.906-3.097-6.933c-1.185-1.027-3.863-3-3.5-4.482c0.367-1.479,0.879-3.94,0.879-3.94s0.201-0.895-0.311-1.049
		c-0.51-0.149-2.699-1.072-3.447-1.784c-0.746-0.708-2.122-2.033-2.323-1.134c-0.203,0.897-1.176,3.474-1.134,4.098
		c0.045,0.631,0.25,0.672,0.735,0.785c0.482,0.104,1.621,1.339,0.987,2.398C111.826,78.101,110.268,79.881,110.229,81.349z"/>
	<path fill="#736357" d="M117.008,73.739c-0.511-0.149-2.699-1.073-3.448-1.785c-0.747-0.707-2.121-2.033-2.323-1.134
		c-0.203,0.897-1.177,3.475-1.135,4.098c0.045,0.631,0.25,0.672,0.736,0.784C111.319,75.808,117.518,73.895,117.008,73.739z"/>
	<path opacity="0.1" d="M101.496,108.566c0,0,1.02-0.918,1.614-3.19c0.001,0-0.566,6.601,2.112,11.425c0,0-1.641-0.623-5.486,0.104
		c-3.845,0.729-6.263,2.118-6.263,2.118C95.554,117.072,101.496,108.566,101.496,108.566z"/>
	<path fill="#736357" d="M117.891,81.396c0,0,1.718,8.837-0.176,12.303c0,0,3.208-6.507,1.123-11.414L117.891,81.396z"/>
</g>
<path fill="#D4BA9C" d="M23,200c1-0.709,1.298-1.336,1.926-1.964c1.748-1.747,7.076-11.799,5.766-21.414
	c-1.312-9.614-2.144-25.348-0.396-28.845c1.749-3.495,16.628-40.353,16.773-42.538c0.146-2.186,2.387-2.857,3.58-1.603
	c0,0,3.61,6.993,28.521,4.808s28.464,4.808,44.634,4.808s22.317,3.933,25.378,2.186c3.059-1.748,5.694,2.186,6.133,4.371
	c0.437,2.184,4.377,30.154,4.377,37.147c0,0,18.796,19.229,22.292,25.349c3.497,6.118-0.164,17.697-0.164,17.697L23,200z"/>
<path opacity="0.1" d="M105.178,199.992c-4.801-19.6-6.684-42.718,4.554-60.955c10.683-17.335-14.538-29.292-30.556-30.593
	c-5.358-0.436-12.112,0.773-15.931,0.072c-11.457-2.097-12.585-4.88-12.585-4.88c-1.193-1.255-3.423-0.583-3.569,1.603
	c-0.146,2.186-15.004,39.043-16.753,42.538c-1.748,3.497-0.875,19.23,0.438,28.845c1.311,9.615-3.934,19.667-5.682,21.414
	c-0.627,0.628-1.255,1.255-1.759,1.964L105.178,199.992z"/>
<circle fill="#464E4A" cx="69.889" cy="139.037" r="6.337"/>
<circle fill="#464E4A" cx="132.894" cy="144.21" r="5.536"/>
<path fill="#C9C9BE" d="M91.084,166.571c-1.601-3.205-15.732-26.221-19.593-30.446c0,0-2.731-2.113-4.479-0.802
	c-1.749,1.311-1.293,3.314,0.018,5.062c1.311,1.749,15.889,23.29,17.346,28.098c1.457,4.807,1.169,19.95,1.169,19.95"/>
<path opacity="0.1" d="M91.05,200c-0.592-14.449-1.616-31.486-2.588-33.429c-1.601-3.205-15.732-26.221-19.593-30.446
	c0,0-2.731-2.113-4.479-0.802c-1.749,1.311-1.293,3.314,0.018,5.062c1.311,1.749,15.889,23.29,17.346,28.098
	c1.457,4.807,1.169,19.95,1.169,19.95s0.22,5.281,0.479,11.566H91.05z"/>
<path fill="#C9C9BE" d="M103.835,200.002c-0.277-1.065-0.523-1.975-0.729-2.681c-1.967-6.773,2.298-18.743,2.406-23.55
	c0.11-4.808,13.01-13.012,17.161-14.87c4.152-1.857,9.63-8.434,11.705-10.399c2.075-1.967,0.137-5.831-2.158-6.378
	s-3.332,1.885-3.332,1.885c-4.808,6.064-19.447,15.569-24.691,18.847c-5.246,3.277-5.683,16.389-6.775,21.852
	c-0.621,3.105-0.805,9.239-0.359,15.286L103.835,200.002z"/>
<path opacity="0.1" d="M101.214,200.002c-0.278-1.065-0.524-1.975-0.729-2.681c-1.967-6.773,2.298-18.743,2.406-23.55
	c0.11-4.808,13.01-13.012,17.161-14.87c4.152-1.857,9.63-8.434,11.705-10.399c2.075-1.967,0.138-5.831-2.158-6.378
	c-2.294-0.547-3.332,1.885-3.332,1.885c-4.808,6.064-19.447,15.569-24.693,18.847c-5.243,3.277-5.681,16.389-6.773,21.852
	c-0.622,3.105-0.891,9.246-0.444,15.293L101.214,200.002z"/>
<path fill="#D24439" d="M84.967,189.296l-1.312-19.666c0,0,1.312-3.688,9.178-1.625s7.43,1.482,9.615,1.189
	c2.184-0.292,5.974,1.311,6.265,2.913c0.29,1.603-0.873,8.595-1.603,9.907c-0.729,1.311-1.022,8.157-0.729,9.031
	C106.381,191.046,93.123,188.13,84.967,189.296z"/>
<g>
	<path fill="#449FA2" d="M102.968-39.264c0,0,14.645-6.052,19.358-5.602c4.716,0.448,6.591,0.266,6.92,3.224
		c0.33,2.959-5.609,9.863-10.354,14.632c-4.746,4.769-16.487,13.762-22.871,4.506L102.968-39.264z"/>
	<path fill="#44B3B6" d="M95.339-24.709c0,0,0.405-11.779,9.232-15.341c8.829-3.564,5.54-0.245,10.229-1.775
		c4.691-1.53,12.682-3.073,12.219,4.348c0,0-7.232,6.793-11.471,12.533c-4.239,5.74-7.488,4.033-11.123,5.515
		S94.943-21.714,95.339-24.709z"/>
	<path fill="#449FA2" d="M106.057-33.377c0,0-4.411,4.82-0.051,7.799c4.358,2.979,8.268-1.292,8.268-1.292s2.98-4.357,1.657-7.34
		C114.609-37.193,107.698-36.11,106.057-33.377z"/>
</g>
<g>
	<path fill="#39B54A" d="M129.425-15.163c0,0,4.742-4.123,8.624-3.655l-0.058,0.976c0,0-6.758,3.778-7.413,5.679L129.425-15.163z"/>
	<path fill="#FBB03B" d="M126.947-4.309c11.083-5.714,7.382-9.345,4.716-13.9c-2.67-4.553-10.717-0.62-14.297,2.104
		c0,0,4.15,0.17,7.226,3.805S126.947-4.309,126.947-4.309z"/>
	
		<ellipse transform="matrix(0.7462 -0.6657 0.6657 0.7462 37.1683 78.3898)" fill="#F7931E" cx="121.396" cy="-9.553" rx="6.029" ry="7.553"/>
</g>
<g>
	<g>
		<path fill="#44B3B6" d="M67.657-31.688c0,0,20.108,6.868,26.384,21.087c0,0-5.688,0.492-11.77-2.449
			c-6.081-2.947-12.851-9.712-13.929-13.245C67.263-29.826,67.657-31.688,67.657-31.688z"/>
		<path fill="#449FA2" d="M67.657-31.688c0,0-7.75,6.67-7.259,15.007c0.489,8.338,0.643,9.614-0.023,10.104
			c0,0-0.86,5.688,2.278,5.099c3.141-0.588,4.022-1.276,8.436-0.49c4.414,0.783,16.184,1.469,22.953-8.634
			C94.042-10.601,82.171-15.013,67.657-31.688z"/>
		
			<ellipse transform="matrix(-0.7711 -0.6368 0.6368 -0.7711 158.5792 13.9639)" fill="#449FA2" cx="81.8" cy="-21.525" rx="5.002" ry="0.839"/>
	</g>
	<path fill="#448D95" d="M59.648-6.79c0,0,0.816,0.122,0.601,0.849c-0.215,0.731-0.482,2.05,0.294,1.654
		c0,0-0.275-0.985,0.406-1.092c0,0,0.663,0.802,0.224,1.678c-0.438,0.875,0.188,0.821,0.364,0.854
		c0.173,0.035,0.355,0.302,0.107,0.805c-0.249,0.5,0.417,0.295,0.417,0.295s0.632,0.32,0.061,0.456
		c-0.571,0.136-3.104-0.109-3.591-1.148c-0.487-1.044,0.653-0.062,0.653-0.062s0.5-0.154-0.013-0.607
		c-0.512-0.456-0.427-1.638-0.131-2.011c0.298-0.375,0.234,0.188,0.234,0.188s0.33,0.13,0.23-0.615
		C59.402-6.292,59.462-6.842,59.648-6.79z"/>
</g>
<g>
	<circle fill="#DE3A24" cx="77.75" cy="-44.5" r="11"/>
	<circle fill="#FC583A" cx="78.5" cy="-44.25" r="10.25"/>
	<path fill="#FFA492" d="M73.5-50.833c1.688-0.305,1.772,1.091,2.167,2.167c0.171,0.465,1.555,2.786,1.474,3.17
		c-0.304,1.449-5.668,0.274-7.283,0.354c-0.139,1.706,0.324,3.166,2.312,2.979c0.635-0.06,1.291-0.537,1.997-0.671
		c1.007-0.191,1.991-0.111,2.938-0.612c0.294,2.163,0.33,3.504-1.096,5.162c-0.528,0.614-1.901,0.43-1.351,1.958
		c0.264,0.732,1.274,1.13,1.979,0.966c0.07-1.282,0.787-2.195,1.395-3.278c0.321-0.572,0.664-2.71,1.126-3.065
		c1.626-1.249,2.893,4.514,5.482,3.974c-0.091-0.703,0.083-1.022,0.664-1.3c0.79-2.498-4.731-3-4.32-4.976
		c0.158-0.761,1.549-0.539,1.979-0.816c0.746-0.48,0.703-0.844,1.204-1.518c0.493-0.663,2.2-2.24,1.175-3.003
		c-1.843-1.374-3.971,3.397-5.809,3.011c-1.152-0.243-0.793-1.981-1.07-2.836c-0.331-1.018-1.441-1.966-1.654-3.143
		c-2.609-0.4-2.142-0.025-3.309,1.809"/>
</g>
</svg>
