<?xml version="1.0" encoding="utf-8"?>
<!-- Generator: Adobe Illustrator 15.1.0, SVG Export Plug-In . SVG Version: 6.00 Build 0)  -->
<!DOCTYPE svg PUBLIC "-//W3C//DTD SVG 1.1//EN" "http://www.w3.org/Graphics/SVG/1.1/DTD/svg11.dtd">
<svg version="1.1" id="Layer_1" xmlns="http://www.w3.org/2000/svg" xmlns:xlink="http://www.w3.org/1999/xlink" x="0px" y="0px"
	 width="52.676px" height="49.261px" viewBox="0 0 52.676 49.261" enable-background="new 0 0 52.676 49.261" xml:space="preserve">
<g>
	<g>
		<path fill="#B3CD00" d="M30.897,15.825c0.69,9.051-1.632,12.578-4.809,12.819c-3.177,0.241-6.007-2.891-6.697-11.943
			c-0.69-9.052,2.859-16.704,4.504-16.828C25.264-0.232,30.208,6.771,30.897,15.825z"/>
		<path fill="#A4BD00" d="M22.553,38.16c-2.207-6.977-0.555-10.319,2.481-11.282c3.038-0.961,6.313,0.825,8.52,7.801
			c2.207,6.978,0.067,13.874-1.503,14.368C30.74,49.464,24.759,45.136,22.553,38.16z"/>
		<path opacity="0.1" d="M27.477,38.472c-1.935-5.854-1.386-11.727-1.094-11.824c0.293-0.097-0.352,5.671,1.58,11.526
			c1.935,5.854,4.05,11.037,3.899,11.087C31.734,49.304,29.409,44.326,27.477,38.472z"/>
		<path fill="#C7DE00" d="M37.748,30.898c-8.097-0.469-10.96-2.651-10.815-5.129c0.144-2.476,3.241-4.312,11.337-3.843
			c8.1,0.474,14.482,4.062,14.406,5.342C52.611,28.338,45.847,31.37,37.748,30.898z"/>
		<path fill="#C7DE00" d="M12.247,25.785c8.091-4.113,12.238-3.323,13.683-0.484s-0.362,6.656-8.451,10.771
			C9.384,40.188,0.957,39.851,0.21,38.384C-0.414,37.158,4.154,29.903,12.247,25.785z"/>
		<path opacity="0.1" d="M13.171,30.635c6.653-3.385,13.042-4.319,13.211-3.987s-6.111,1.131-12.764,4.514
			c-6.656,3.387-12.473,6.866-12.561,6.695C0.984,37.712,6.515,34.02,13.171,30.635z"/>
	</g>
	<path opacity="0.1" d="M26.676,13.997c0.852,5.731-0.008,12.606-0.294,12.65c-0.286,0.042,0.646-6.72-0.204-12.45
		C25.326,8.463,23.79,0.241,23.938,0.219C24.062,0.2,25.825,8.265,26.676,13.997z"/>
	<path opacity="0.1" d="M40.221,25.626c6.603,0.056,12.457,1.301,12.455,1.643c-0.003,0.341-5.717-0.968-12.32-1.027
		c-6.605-0.059-13.312,0.407-13.312,0.232C27.045,26.324,33.615,25.566,40.221,25.626z"/>
</g>
</svg>
