<svg version="1.1" id="exchange" xmlns="http://www.w3.org/2000/svg" xmlns:xlink="http://www.w3.org/1999/xlink" x="0px" y="0px"
 viewBox="0 0 200 200" enable-background="new 0 0 200 200" xml:space="preserve">
<g>
	<rect x="-0.364" y="0.276" fill="#44C0C0" width="200" height="200"/>
	<g id="apple">
		<g>
			<path fill="#FF4924" d="M193.721,112.102c-1.194-4.103-3.91-13.389-24.224-20.991c-20.315-7.602-31.349-7.559-38.739-0.478
				c0,0-4.216,3.567-6.817,6.001c-15.036,14.061-11.024,34.538-10.217,40.055c1.328,9.138,6.233,21.491,14.231,26.364
				c3.156,1.92,9.318,2.174,13.973,2.813c5.49,0.749,7.35,3.589,13.582,2.873c10.743-1.229,18.057-6.901,24.31-14.222
				C190.43,142.099,198.167,127.407,193.721,112.102z"/>
			<path fill="#BD4924" d="M152.366,91.29c0,0,11.973,4.783,18.177,4.745c6.209-0.028-2.399-2.584-2.399-2.584
				s-6.618-3.662-11.643-3.888C151.485,89.335,149.853,90.352,152.366,91.29z"/>
			<path fill="#604921" d="M161.854,94.543c-0.391-0.347,2.892-4.773,4.044-5.647c1.148-0.879,2.37-3.467,2.676-4.454
				c0.304-0.996,1.804-0.617,2.023,0.28c0.226,0.889,0.379,2.288-0.413,3.039c-0.792,0.752-5.45,4.593-5.635,7.15
				C164.55,94.912,162.771,95.357,161.854,94.543z"/>
		</g>
		<g>
			<path fill="#E64924" d="M113.724,136.689c0.165,1.137,0.384,2.326,0.661,3.541c1.938,8.557,6.565,18.559,13.57,22.824
				c3.156,1.92,9.318,2.174,13.973,2.813c5.49,0.749,7.35,3.589,13.582,2.873c6.128-0.701,11.14-2.849,15.477-5.922
				c3.265-2.313,6.146-5.153,8.833-8.299c5.266-6.165-20.481,3.688-39.866,0.706C119.937,152.148,113.292,133.741,113.724,136.689z"
				/>
			<path fill="#BD4924" d="M152.366,91.29c0,0,11.973,4.783,18.177,4.745c6.209-0.028-2.399-2.584-2.399-2.584
				s-6.618-3.662-11.643-3.888C151.485,89.335,149.853,90.352,152.366,91.29z"/>
			<path fill="#604921" d="M161.854,94.543c-0.391-0.347,2.892-4.773,4.044-5.647c1.148-0.879,2.37-3.467,2.676-4.454
				c0.304-0.996,1.804-0.617,2.023,0.28c0.226,0.889,0.379,2.288-0.413,3.039c-0.792,0.752-5.45,4.593-5.635,7.15
				C164.55,94.912,162.771,95.357,161.854,94.543z"/>
		</g>
	</g>
	<g id="waste">
		<g>
			<path fill="#FFFFEB" d="M11.19,94.197c0,0,15.473,3.322,15.803,10.852c0.324,7.531-1.646,17.162-7.129,20.052
				c-5.481,2.892,2.389,5.615,2.389,5.615s22.146,6.231,31.75-4.246c9.6-10.475,15.037-6.717,16.719-14.779
				c1.68-8.065-2.553-3.498-5.563-4.559c-3.009-1.064-19.29-5.53-12.852-17.432c6.444-11.902,10.113-8.032,10.438-13.286
				c0.321-5.248-47.061,11.822-47.061,11.822S3.982,91.85,11.19,94.197z"/>
			<path fill="#449FA0" d="M18.091,126.946c1.303,0.908,4.905,4.514,12.114,4.433c9.129-0.108,6.082-3.23,10.277-2.884
				c4.193,0.349,9.481-2.756,12.447-5.298c2.967-2.536,3.942-1.254,7.833-3.121c3.893-1.868,11.552-7.896,9.323-11.634
				c-2.229-3.735,1.682-3.061,1.807-0.769c0.12,2.292-2.087,19.635-18.322,26.543c-16.234,6.909-25.886,2.113-35.298-4.85
				C14.387,126.496,16.726,125.989,18.091,126.946z"/>
			<path fill="#449FA0" d="M38.471,100.556c0.436,1.237,0.478,2.347,0.097,2.48c-0.382,0.136-1.041-0.759-1.474-1.994
				c-0.435-1.24-0.478-2.354-0.098-2.482C37.377,98.428,38.038,99.32,38.471,100.556z"/>
			<path fill="#449FA0" d="M41.484,100.872c0.431,1.237,0.476,2.349,0.096,2.483c-0.381,0.133-1.042-0.761-1.476-1.997
				c-0.435-1.239-0.476-2.351-0.096-2.483C40.39,98.743,41.051,99.636,41.484,100.872z"/>
			<path fill="#F2EDDC" d="M11.19,94.197c0,0,5.495,1.177,10.005,3.726c1.13,0.638,5.539,3.774,9.285,1.295
				c11.394-7.534,17.767-2.019,21.827-9.52c6.444-11.902,10.113-8.032,10.438-13.286c0.321-5.248-47.061,11.822-47.061,11.822
				S3.982,91.85,11.19,94.197z"/>
			<path fill="#449FA0" d="M8.773,82.763c0,0-4.192,8.172-1.492,10.01c2.696,1.834,4.219-0.098,7.205-0.088
				c2.988,0.009,9.358,2.414,18.478-4.666c9.123-7.075,11.249-3.084,15.781-3.944c4.533-0.862,5.542-2.998,8.843-5.251
				c3.299-2.258,4.77-3.308,6.909-3.793c2.137-0.483,3.091-1.744,0.344-4.193c-2.747-2.452-8.809-8.183-27.195-4.835
				C19.257,69.348,11.114,74.253,8.773,82.763z"/>
			<path fill="#448C94" d="M25.051,73.703c0,0,10.971-1.755,15.548-4.516c4.575-2.766-2.92-0.854-2.92-0.854
				s-6.515,0.214-10.328,2.26C23.538,72.645,22.777,74.117,25.051,73.703z"/>
			<path fill="#3D5953" d="M33.506,71.917c-0.44-0.082,0.032-4.808,0.496-5.963c0.468-1.16,0.225-3.609,0.014-4.479
				c-0.21-0.871,1.065-1.253,1.625-0.69c0.56,0.558,1.29,1.529,1.035,2.433c-0.253,0.909-2.003,5.805-1.005,7.781
				C35.669,70.999,34.548,72.114,33.506,71.917z"/>
		</g>
		<g>
			<path fill="#FFE1C0" d="M59.776,135.841l-0.996,1.431l0.996,3.066c0,0,0.985-0.876,3.106-0.559
				c2.12,0.312,4.754-0.483,4.754-0.483v-4.398c0,0-4.832-1.02-5.148-1.097C62.176,133.72,59.776,135.841,59.776,135.841z"/>
			<path fill="#FFF2DE" d="M44.47,117.627c0,0,5.251,6.115,6.821,7.375l1.964-2.361c0,0,0.158-0.626,1.181,0.63
				c1.02,1.256,4.398,6.049,4.163,13.591c0,0,0.312,0.787,1.177,1.807c0.865,1.019,1.924,2.678-0.491,5.975l-4.46,1.525
				l-10.355-1.217l-2.761-6.361c0,0-2.201-13.434-2.28-13.747C39.349,124.527,44.47,117.627,44.47,117.627z"/>
			<path fill="#448C94" d="M44.98,114.918c0,0-10.918,1.139-14.062,8.784c-3.141,7.648-2.737,12.459,0.931,16.544
				c3.665,4.085,12.04,10.682,27.436,4.398c0,0-3.563,1.148-4.82,0.312c-1.258-0.838-4.82-1.467-7.021-1.152
				c-2.198,0.313-2.723-0.314-2.723-0.314l-0.21-0.214h2.618c0,0,0.146-2.75,0.808-4.639l-2.168-1.24c0,0,1.045-4.649,0.417-6.276
				c-0.629-1.625-0.523-2.9-0.523-3.844c0-0.943-0.195-3.68-1.616-4.207c0,0,0.136-1.446,0.451-2.268c0,0-0.786-4.361,1.219-4.715
				C45.715,116.087,44.602,115.441,44.98,114.918z"/>
			<path fill="#448C94" d="M59.776,135.76c0,0,0.55-0.152,1.651-0.625c1.1-0.473,1.494-0.394,1.807,0.313
				c0.315,0.704,2.278,2.436,3.376,2.436c1.1,0,0.708,1.727,1.808,1.805c1.1,0.081,3.536-0.313,5.656,2.202c0,0,1.572,0,2.828,0.628
				c1.257,0.628,4.321-1.257,5.342-0.867c1.021,0.396,4.243,1.73,3.693,4.244c-0.552,2.516-1.492,3.301-0.787,3.301
				c0.709,0,1.807,0.391,2.593,0.863c0,0,1.494-1.02,2.123-1.02c0,0,4.399-7.306,2.905-13.124c-1.494-5.809-3.299-9.034-8.485-10.76
				c-5.186-1.729-10.763-0.156-13.591,1.492C67.868,128.299,62.526,131.6,59.776,135.76z"/>
		</g>
	</g>
</g>
</svg>
