<?xml version="1.0" encoding="utf-8"?>
<!-- Generator: Adobe Illustrator 15.1.0, SVG Export Plug-In . SVG Version: 6.00 Build 0)  -->
<!DOCTYPE svg PUBLIC "-//W3C//DTD SVG 1.1//EN" "http://www.w3.org/Graphics/SVG/1.1/DTD/svg11.dtd">
<svg version="1.1" id="Layer_1" xmlns="http://www.w3.org/2000/svg" xmlns:xlink="http://www.w3.org/1999/xlink" x="0px" y="0px"
	 width="1024px" height="76.745px" viewBox="0 0 1024 76.745" enable-background="new 0 0 1024 76.745" xml:space="preserve">
<g>
	<path fill="#44B3B6" d="M3.067,57.087c0,0-1.867-1.273-2.87,0c0,0-0.534,0.332,0.669,1.265c0,0-0.802,0.335,0.065,1.067
		c0.869,0.735,5.41,6.746,15.959,7.68c10.55,0.938,24.371,1.337,34.587-3.137c0,0,19.498,12.486,28.845,12.752
		c9.349,0.267,11.285-1.334,11.285-1.334s1.469-0.133,2.07-0.804c0,0,1.002-0.796,1.336-1.334c0,0,2.805,0.202,0.602-2.005
		c-2.205-2.199-25.107-14.284-25.107-14.284l-2.355-1.673l-8.53-13.217l-2.738-1.738l-5.606,0.599l-3.808-0.599l-3.806-3.338
		l-4.341-6.609l-1.258-1.052c0,0-1.746,2.851,1.326,6.327c0,0-0.67,11.548,11.017,12.417c0,0-10.149,4.52-14.69,4.962
		c-4.541,0.446-15.424,1.25-17.494,1.25c-2.07,0-3.808,0.732-5.677,0.999c-1.87,0.267-5.606,0.735-6.409,0.735
		S3.067,57.087,3.067,57.087z"/>
	<path fill="#449FA2" d="M72.377,29.775c0,0-4.539,2.805-7.878,5.477c-3.339,2.668-10.95,8.412-18.296,3.472
		c0,0-6.144-2.805-2.803-6.411c3.337-3.605,12.15-11.083,12.15-11.083s0.943-1.155,1.841-2.355c0.897-1.205,2.302-2.653,2.451-2.805
		c0.148-0.152,0.351-0.903-0.452-0.8c0,0-0.501-0.701-0.951-0.602c-0.452,0.099-0.951-0.152-0.2-0.8c0.75-0.652-0.4-1.151-0.4-1.151
		s0.099-1.257-1-1.056c-1.104,0.202-4.208,1.105-6.111,2.005c-1.902,0.903-17.728,9.867-11.068,20.032
		c6.66,10.165,13.624,8.312,17.377,7.26c0,0-3.655,2.153-1.102,4.756c2.554,2.607,12.219,9.566,12.219,9.566
		s-0.351-0.347,0.651-1.048c1-0.705,8.564-6.063,9.664-10.168c1.104-4.104,1.553-6.01,1.104-7.512
		c-0.45-1.502-1.652-4.604-0.551-5.66c1.102-1.052,2.854-2.855,2.854-2.855s0.65-0.648,0.301-1.052
		c-0.351-0.4-1.704-2.352-1.954-3.354c-0.251-0.999-0.701-2.854-1.353-2.203c-0.652,0.648-2.855,2.302-3.154,2.851
		c-0.301,0.557-0.15,0.701,0.2,1.056c0.351,0.347,0.65,2.001-0.452,2.554C75.466,27.889,73.196,28.556,72.377,29.775z"/>
	<path fill="#448D95" d="M82.178,26.985c-0.351-0.4-1.704-2.352-1.954-3.354c-0.251-0.999-0.701-2.854-1.353-2.203
		c-0.652,0.648-2.855,2.302-3.154,2.851c-0.301,0.557-0.15,0.701,0.2,1.056C76.268,25.682,82.526,27.389,82.178,26.985z"/>
	<path fill="#449FA2" d="M50.411,48.069c0,0,1.353-0.229,3.074-1.83c0.002,0-4.017,5.268-4.343,10.778c0,0-1.05-1.406-4.686-2.854
		c-3.638-1.444-6.422-1.57-6.422-1.57C40.835,52.063,50.411,48.069,50.411,48.069z"/>
	<path fill="#448D95" d="M78.818,33.922c0,0-3.287,8.381-6.744,10.291c0,0,6.197-3.773,7.068-9.033L78.818,33.922z"/>
</g>
<g>
	<path fill="#44B3B6" d="M151.204,26.62c0,0-0.728,4.958-0.069,6.544c0.663,1.585-1.498,6.723-4.522,7.565
		c-3.017,0.838-5.732,0.72-7.323,1.06c-1.589,0.343-6.02-0.816-7.899-2.123c-1.883-1.3-2.512,10.462,6.054,18.161
		s15.152,14.414,19.95,11.312c0,0,0.667-1.658,0.438-2.721c0,0,0.103-0.32-0.606-1.532c-0.708-1.212,0.236-2.184-0.062-4.467
		c-0.297-2.283,1.848-8.484,6.893-8.926c5.048-0.446,6.521,2.138,8.501,2.908c1.976,0.773,5.643,1.063,5.643,1.063
		S165.867,25.347,151.204,26.62z"/>
	<path fill="#449FA2" d="M148.309,25.171c0,0,2.868-0.358,3.284,2.667c0,0,2.833,4.745,2.388,6.933c0,0,2.569,1.238,3.384,2.348
		c0,0,7.577,1.803,9.094,11.038c0,0,7.308,1.543,6.984,4.901c0,0,4.892,0.255,4.884,3.175c0,0,5.389-6.513-1.48-18.225
		c-6.872-11.708-11.34-15.527-15.022-16.274c-3.68-0.747-10.658-1.338-11.487,0.164C149.509,23.399,149.205,24.355,148.309,25.171z"
		/>
	<path fill="#449FA2" d="M131.391,39.666c0,0-1.833,2.104,0.019,5.377c0,0-0.819,5.809,4.958,8.065c0,0,0.617,6.159,6.475,6.609
		c0,0,5.275,8.064,9.475,7.954c0,0,2.098,2.565,3.733,1.555c0,0-2.65,1.429-5.941,0.934c-3.295-0.5-9.524-0.679-14.721-7.093
		c-5.195-6.415-7.089-8.675-6.849-14.315C128.776,43.111,131.391,39.666,131.391,39.666z"/>
	<path fill="#448D95" d="M168.244,29.966c0,0,0.943,4.375,9.334,10.961c0,0,1.343-0.899-4.677-9.112
		C166.877,23.601,168.244,29.966,168.244,29.966z"/>
	<path fill="#447979" d="M169.957,33.259c0,0,5.162-0.595,7.481-2.119c0,0,0.61,1.639-0.398,2.028
		c-1.004,0.389-4.711,0.846-5.904,1.643C171.136,34.81,170.755,34.509,169.957,33.259z"/>
</g>
<g>
	<g>
		<path fill="#44B3B6" d="M234.164,20.792c0,0,29.423,10.05,38.608,30.856c0,0-8.324,0.721-17.223-3.583
			c-8.897-4.311-18.803-14.212-20.381-19.38C233.588,23.517,234.164,20.792,234.164,20.792z"/>
		<path fill="#449FA2" d="M234.164,20.792c0,0-11.339,9.761-10.622,21.96c0.716,12.2,0.941,14.067-0.033,14.784
			c0,0-1.259,8.324,3.333,7.462c4.595-0.861,5.885-1.868,12.343-0.717c6.46,1.147,23.682,2.15,33.587-12.634
			C272.771,51.648,255.403,45.192,234.164,20.792z"/>
		
			<ellipse transform="matrix(0.6367 -0.7711 0.7711 0.6367 65.0797 209.4805)" fill="#449FA2" cx="254.867" cy="35.669" rx="1.228" ry="7.319"/>
	</g>
	<path fill="#448D95" d="M222.446,57.224c0,0,1.193,0.179,0.878,1.242c-0.314,1.071-0.705,3,0.431,2.42c0,0-0.402-1.441,0.594-1.597
		c0,0,0.97,1.174,0.328,2.455c-0.641,1.281,0.274,1.201,0.532,1.25c0.253,0.05,0.52,0.442,0.156,1.178
		c-0.364,0.732,0.611,0.431,0.611,0.431s0.924,0.469,0.088,0.667s-4.541-0.16-5.254-1.681c-0.713-1.528,0.955-0.091,0.955-0.091
		s0.732-0.225-0.019-0.888c-0.749-0.667-0.625-2.397-0.192-2.942c0.437-0.549,0.343,0.274,0.343,0.274s0.482,0.19,0.337-0.899
		C222.085,57.952,222.173,57.148,222.446,57.224z"/>
</g>
<g>
	<path fill="#449FA2" d="M324.144,10.269c0,0-22.866,9.841-20.055,24.598c2.811,14.757,7.632,26,21.385,30.216
		c13.753,4.215,25.347-0.069,30.969-1.967c0,0,5.622,12.158,22.839,9.696c17.217-2.458,28.11-15.108,30.218-23.188
		c2.109-8.08,3.864-24.598-7.729-34.084c-11.596-9.486-24.596,7.379-24.596,7.379s-9.136,10.874-8.082,18.79l-6.325,10.374
		l-5.324,1.406c0,0,3.813-11.243,0-18.271C353.631,28.19,333.195,5.04,324.144,10.269z"/>
	<path fill="#44B3B6" d="M332.95,13.433c0,0,21.034,15.458,22.791,23.191c1.757,7.729,0,14.052,0,14.052s4.918,2.111,7.729-4.215
		c2.811-6.323,18.622-28.108,22.839-29.865c4.217-1.757,11.596-4.569,10.54,3.164c-1.054,7.729-10.189,27.052-34.785,41.459
		c0,0-14.757,5.271-26-1.757c-11.243-7.028-4.918-10.047-17.568-21.187c-12.649-11.137-2.243-23.085,2.919-24.842
		C326.577,11.675,332.95,13.433,332.95,13.433z"/>
</g>
<g>
	<path fill="#449FA2" d="M556.587,22.282c0,0,24.998,11.701,29.964,18.287c4.971,6.586,7.409,8.781,3.995,12.684
		c-3.415,3.903-19.271,4.391-30.979,3.903s-37.072-5-32.686-24.087L556.587,22.282z"/>
	<path fill="#44B3B6" d="M528.913,29.596c0,0,15.611-13.332,30.57-6.178c14.963,7.154,6.83,6.83,14.312,11.057
		s18.862,12.68,8.781,20.813c0,0-17.234-1.304-29.595,0c-12.359,1.303-13.987-4.878-20.165-7.806S524.6,32.611,528.913,29.596z"/>
	<path fill="#449FA2" d="M552.654,33.175c0,0-11.381,0-10.081,9.105c1.3,9.105,11.384,9.105,11.384,9.105s9.105-1.296,11.381-6.502
		C567.617,39.677,558.097,32.07,552.654,33.175z"/>
</g>
<g>
	<path fill="#449FA2" d="M471.598,31.99c0,0-1.294,5.842-2.561,8.042c-1.265,2.203,1.5,21.858,12.712,19.902
		c11.213-1.955,15.361-12.249,11.821-21.206c-3.542-8.96-14.704-21.865-18.296-15.958C471.682,28.678,470.382,26.917,471.598,31.99z
		"/>
	<path fill="#447979" d="M475.529,7.784L477,9.011c0,0-5.305,9.345-0.413,14.681l-0.976,1.41
		C475.611,25.103,471.125,16.722,475.529,7.784z"/>
</g>
<g>
	<g>
		<path fill="#449FA2" d="M666.378,40.618c-3.502,6.033-11.243,8.084-17.276,4.581c-6.037-3.51-8.087-11.243-4.585-17.28
			c3.507-6.033,11.243-8.083,17.276-4.581C667.83,26.844,669.881,34.581,666.378,40.618z"/>
		<polygon fill="#447979" points="662.411,31.048 659.659,27.954 656.412,30.522 656.861,27.104 651.758,27.82 655.23,25.389 
			650.23,23.975 655.405,23.445 652.402,20.449 657.304,22.035 657.456,18.593 660.208,21.688 663.455,19.119 663.005,22.534 
			668.112,21.817 664.637,24.256 669.637,25.67 664.465,26.193 667.465,29.192 662.563,27.606 		"/>
	</g>
	<circle fill="#44B3B6" cx="638.354" cy="40.812" r="10.245"/>
	<polygon fill="#449FA2" points="641.925,35.721 638.735,34.673 637.508,37.794 636.43,35.218 633.145,37.794 634.589,34.677 
		630.503,35.721 633.918,33.247 630.595,32.367 634.672,31.483 633.381,29.009 636.57,30.057 637.798,26.936 638.876,29.512 
		642.161,26.932 640.717,30.053 644.803,29.009 641.388,31.483 644.711,32.363 640.633,33.247 	"/>
	<path fill="#44B3B6" d="M673.62,49.617c-2.84,4.89-9.113,6.552-14.007,3.712c-4.89-2.843-6.556-9.113-3.712-14.007
		c2.843-4.89,9.112-6.551,14.002-3.712C674.798,38.454,676.459,44.723,673.62,49.617z"/>
	<polygon fill="#449FA2" points="670.407,41.861 668.174,39.353 665.544,41.434 665.905,38.663 661.771,39.242 664.583,37.272 
		660.528,36.125 664.725,35.698 662.293,33.27 666.264,34.555 666.39,31.765 668.615,34.272 671.249,32.191 670.887,34.958 
		675.026,34.379 672.206,36.354 676.261,37.5 672.068,37.924 674.5,40.355 670.528,39.071 	"/>
</g>
<g>
	<path fill="#448D95" d="M795.76,51.404c0,0,6.28,0.217,8.796,3.209l-0.701,0.675c0,0-7.523-1.853-9.3-0.903L795.76,51.404z"/>
	<path fill="#449FA2" d="M737.409,50.626c0,0,37.137,3.644,49.139,7.024c11.998,3.38,11.772-1.803,12.924-6.948
		c1.154-5.153-7.413-7.764-11.892-8.213c-4.474-0.446-37.922-1.06-50.986,0.819C690.21,49.979,737.409,50.626,737.409,50.626z"/>
</g>
<g>
	<path fill="#448D95" d="M778.472,32.531c0,0,6.018-1.807,9.364,0.217l-0.454,0.865c0,0-7.714,0.663-9.093,2.126L778.472,32.531z"/>
	<path fill="#44B3B6" d="M726.852,50.406c0,0,32.449-8.358,44.896-9.002c12.452-0.648,10.573-5.48,10.017-10.729
		c-0.561-5.248-9.513-4.974-13.896-3.964c-4.383,1.014-34.126,8.416-44.134,17.029C713.726,52.35,726.852,50.406,726.852,50.406z"/>
</g>
<g>
	<path fill="#449FA2" d="M849.354,62.567c0,0,5.899,10.527,18.538,0c12.631-10.527,13.054-14.742,15.157-23.168
		c2.107-8.423,4.635-15.158,5.9-17.261c1.261-2.108,0-9.273-8.004-5.481c-8.004,3.792-5.896,8.842-11.583,12.634
		c-5.687,3.8-9.056,5.484-15.794,8.427S843.492,58.177,849.354,62.567z"/>
	<path fill="#447979" d="M888.221,14.503l2.82-3.449l1.562,1.723l-2.188,3.731c0,0,1.25,3.003,0,5.198l-0.839-0.415
		c0,0-1.463,1.044-1.356,1.985c0,0-0.525-1.879-1.356-2.511c0,0-0.629-0.099-0.839,0.735c0,0-0.206-1.879-0.625-2.195
		c0,0-1.151-0.209-1.669,0.316c0,0-0.004-2.615-0.839-2.458c0,0-1.566-0.575-2.714,0C880.179,17.164,884.775,10.01,888.221,14.503z"
		/>
</g>
<g>
	<path fill="#449FA2" d="M944.955,33.419c0,0,3.773,34.781,28.722,32.453c24.949-2.329,25.737-27.57,19.331-40.079
		c-6.41-12.509-22.795-25.139-34.637-17.215C946.525,16.497,943.949,27.893,944.955,33.419z"/>
	<g>
		<path fill="#449FA2" d="M941.654,55.014l10.143-5.793c0,0,11.864,9.357,10.885,3.19c0,0,15.798,4.398,46.066-21.194l13.709-2.717
			c0,0,0.568,13.58-4.325,20.63c-4.894,7.047-14.727,17.924-28.009,21.477c-13.282,3.556-31.348,0.686-39.295-6.026
			C942.878,57.864,941.654,55.014,941.654,55.014z"/>
		<path fill="#44B3B6" d="M941.235,53.691l10.146-5.797c0,0,11.861,9.36,10.882,3.198c0,0,15.797,4.391,46.066-21.202l13.709-2.714
			c0,0,0.568,13.576-4.325,20.627c-4.891,7.051-14.728,17.928-28.006,21.48c-13.286,3.552-31.352,0.682-39.298-6.029
			C942.459,56.542,941.235,53.691,941.235,53.691z"/>
	</g>
</g>
</svg>
