<?xml version="1.0" encoding="utf-8"?>
<!-- Generator: Adobe Illustrator 15.1.0, SVG Export Plug-In . SVG Version: 6.00 Build 0)  -->
<!DOCTYPE svg PUBLIC "-//W3C//DTD SVG 1.1//EN" "http://www.w3.org/Graphics/SVG/1.1/DTD/svg11.dtd">
<svg version="1.1" id="Layer_1" xmlns="http://www.w3.org/2000/svg" xmlns:xlink="http://www.w3.org/1999/xlink" x="0px" y="0px"
	 width="161.759px" height="58.119px" viewBox="0 0 161.759 58.119" enable-background="new 0 0 161.759 58.119"
	 xml:space="preserve">
<g>
	<path fill="#44C0C0" d="M0.952,30.706c0.91,15.87,14.513,27.998,30.38,27.096c3.209-0.188,6.239-0.892,9.059-2.012
		c1.372-0.549,6.642,0.778,8.923,0.974c0.91,0.082,1.458-0.421,0.955-0.685c-4.161-2.188-3.823-3.4-2.169-4.541
		c6.33-4.345,10.815-15.807,10.326-24.125C57.517,11.535,43.917-0.595,28.039,0.319C12.172,1.228,0.045,14.833,0.952,30.706z"/>
</g>
<g>
	<path fill="#FFFFFF" d="M14.856,29.828c0.637-0.57,1.869-1.57,2.741-1.498c0.08,0.008,0.17,0.016,0.271,0.046
		c0.1,0.031,0.196,0.087,0.286,0.169c0.09,0.083,0.166,0.196,0.226,0.344c0.06,0.146,0.09,0.335,0.09,0.566
		c0,0.465-0.063,0.918-0.19,1.356c-0.127,0.44-0.368,0.974-0.723,1.602s-0.594,1.17-0.718,1.627
		c-0.124,0.456-0.186,0.936-0.186,1.433c0,0.273,0.04,0.491,0.12,0.654c0.081,0.164,0.184,0.246,0.312,0.246
		c0.161,0,0.331-0.033,0.512-0.102c0.181-0.068,0.362-0.156,0.542-0.264c0.181-0.107,0.358-0.231,0.532-0.369
		c0.174-0.14,0.338-0.283,0.492-0.432c0.368-0.346,0.729-0.738,1.084-1.176l0.17,2.672c-0.121,0.088-0.273,0.198-0.457,0.33
		c-0.184,0.133-0.388,0.272-0.613,0.42c-0.225,0.146-0.467,0.297-0.728,0.447c-0.261,0.152-0.524,0.285-0.788,0.402
		c-0.264,0.115-0.529,0.211-0.793,0.287c-0.264,0.076-0.517,0.113-0.758,0.113c-0.377,0-0.704-0.095-0.981-0.282
		c-0.277-0.188-0.505-0.427-0.683-0.718c-0.179-0.29-0.312-0.607-0.401-0.952c-0.089-0.345-0.134-0.669-0.134-0.976
		c0-0.217,0.03-0.458,0.089-0.726c0.059-0.267,0.132-0.536,0.219-0.806c0.087-0.271,0.185-0.535,0.292-0.791
		c0.108-0.258,0.209-0.488,0.304-0.689c0.094-0.204,0.176-0.369,0.246-0.498c0.07-0.128,0.115-0.203,0.136-0.223l-0.211-0.03
		c-0.114,0.073-0.306,0.259-0.578,0.556c-0.271,0.299-0.577,0.674-0.919,1.127c-0.341,0.454-0.694,0.965-1.06,1.53
		c-0.365,0.565-0.694,1.15-0.989,1.753c-0.147,0.298-0.268,0.559-0.361,0.779c-0.094,0.222-0.186,0.4-0.276,0.535
		c-0.09,0.136-0.189,0.238-0.296,0.307c-0.107,0.07-0.244,0.104-0.412,0.104c-0.221,0-0.395-0.06-0.522-0.18
		c-0.127-0.118-0.224-0.277-0.292-0.475c-0.066-0.198-0.11-0.424-0.13-0.674c-0.021-0.252-0.03-0.51-0.03-0.774
		c0-0.46,0.005-1.062,0.015-1.806s0.042-1.569,0.096-2.475s0.151-1.844,0.293-2.814c0.142-0.97,0.283-1.936,0.423-2.896
		c0.141-0.961,0.35-1.875,0.628-2.744c0.278-0.868,0.617-1.632,1.016-2.292s0.866-1.186,1.402-1.574s1.153-0.583,1.85-0.583
		c0.361,0,0.657,0.054,0.888,0.162s0.416,0.258,0.552,0.454c0.137,0.196,0.233,0.429,0.286,0.702
		c0.054,0.273,0.081,0.578,0.081,0.915c0,0.5-0.07,1.055-0.21,1.664c-0.141,0.608-0.327,1.241-0.558,1.897
		c-0.231,0.655-0.494,1.319-0.788,1.992c-0.295,0.673-0.596,1.326-0.904,1.958S14.179,30.436,14.856,29.828z M13.76,26.252
		c0.395-1.025,0.682-1.888,0.859-2.591c0.178-0.703,0.267-1.222,0.267-1.556c0-0.509-0.072-0.763-0.214-0.763
		c-0.174,0-0.432,0.285-0.773,0.854c-0.341,0.568-0.743,1.395-1.205,2.479c-0.114,0.368-0.219,0.75-0.316,1.145
		s-0.174,0.789-0.231,1.183c-0.056,0.394-0.113,0.781-0.168,1.162s-0.107,0.739-0.155,1.076c-0.147,0.795-0.259,1.572-0.337,2.333
		c0.181-0.422,0.379-0.881,0.593-1.375c0.215-0.496,0.426-0.986,0.634-1.472c0.208-0.485,0.404-0.942,0.588-1.375
		C13.486,26.919,13.639,26.553,13.76,26.252z"/>
	<path fill="#FFFFFF" d="M23.587,38.702c-0.625,0-1.171-0.115-1.641-0.347c-0.469-0.232-0.859-0.545-1.172-0.936
		c-0.312-0.393-0.547-0.846-0.704-1.36c-0.156-0.514-0.234-1.054-0.234-1.618c0-0.371,0.069-0.812,0.209-1.324
		s0.285-0.966,0.435-1.362c0.149-0.397,0.338-0.774,0.564-1.135c0.227-0.36,0.491-0.677,0.794-0.951s0.643-0.492,1.019-0.654
		c0.376-0.161,0.794-0.243,1.253-0.243c0.375,0,0.724,0.061,1.045,0.182c0.321,0.12,0.602,0.289,0.839,0.506
		c0.238,0.219,0.424,0.48,0.558,0.788c0.134,0.307,0.202,0.651,0.202,1.032c0,0.406-0.136,0.861-0.408,1.365
		s-0.588,0.936-0.951,1.296c-0.362,0.36-0.793,0.681-1.293,0.962c-0.5,0.281-1.042,0.5-1.625,0.657
		c0.101,0.177,0.2,0.325,0.297,0.442s0.196,0.209,0.297,0.274s0.207,0.112,0.317,0.138c0.111,0.026,0.23,0.039,0.358,0.039
		c0.402,0,0.825-0.078,1.27-0.235s0.879-0.354,1.3-0.589c0.422-0.236,0.82-0.492,1.195-0.771c0.375-0.278,0.692-0.542,0.954-0.791
		l1.294,1.315c-0.589,0.627-1.214,1.183-1.877,1.665c-0.288,0.207-0.598,0.41-0.929,0.61c-0.331,0.199-0.68,0.377-1.044,0.533
		c-0.365,0.154-0.743,0.278-1.135,0.371C24.386,38.656,23.989,38.702,23.587,38.702z M22.247,33.92c0.242,0,0.505-0.061,0.791-0.182
		s0.551-0.276,0.796-0.467c0.246-0.189,0.486-0.443,0.721-0.766c0.235-0.32,0.353-0.586,0.353-0.795
		c0-0.295-0.056-0.536-0.166-0.727c-0.111-0.189-0.247-0.284-0.408-0.284c-0.289,0-0.536,0.052-0.741,0.157
		c-0.206,0.105-0.376,0.24-0.514,0.408c-0.138,0.166-0.249,0.355-0.333,0.568c-0.084,0.213-0.182,0.477-0.292,0.791
		c-0.111,0.312-0.173,0.572-0.187,0.775S22.247,33.776,22.247,33.92z"/>
	<path fill="#FFFFFF" d="M28.709,36.973c-0.267-0.509-0.41-1.138-0.54-1.832c-0.13-0.695-0.195-1.426-0.195-2.19
		c0-0.657,0.096-1.534,0.29-2.63c0.193-1.098,0.29-1.645,0.29-1.645s0.146-0.548,0.438-1.643c0.293-1.096,0.586-1.974,0.88-2.636
		c0.294-0.662,0.613-1.28,0.958-1.855c0.345-0.575,0.707-1.076,1.085-1.502c0.378-0.428,0.774-0.763,1.187-1.008
		c0.413-0.243,0.832-0.366,1.258-0.366c0.31,0,0.566,0.059,0.768,0.178c0.202,0.118,0.36,0.274,0.476,0.468
		c0.115,0.194,0.196,0.415,0.243,0.66c0.047,0.246,0.07,0.496,0.07,0.751c0,0.632-0.075,1.277-0.225,1.933
		c-0.149,0.657-0.351,1.316-0.605,1.979c-0.254,0.664-0.548,1.329-0.882,1.995c-0.333,0.666-0.682,1.328-1.043,1.984
		c-0.362,0.655-0.726,1.303-1.092,1.938c-0.365,0.636-0.702,1.258-1.011,1.865c-0.033,0.067-0.069,0.155-0.106,0.264
		c-0.037,0.107-0.072,0.225-0.105,0.349c-0.034,0.126-0.067,0.259-0.101,0.401c-0.033,0.141-0.061,0.279-0.08,0.414v0.142
		c0,0.176,0.031,0.344,0.055,0.511c0.128,0.879,0.887,0.833,0.941,0.833c2.898,0.001,5.524-5.216,5.997-5.587l0.523,2.674
		c0,0-1.315,2.092-4.366,4.545C32.893,38.702,29.974,39.383,28.709,36.973z M30.535,30.743c0.302-0.54,0.623-1.147,0.961-1.822
		c0.34-0.675,0.66-1.37,0.962-2.086c0.303-0.715,0.564-1.43,0.786-2.141c0.222-0.712,0.362-1.375,0.423-1.991
		c0-0.196-0.004-0.362-0.014-0.501c-0.009-0.138-0.04-0.208-0.09-0.208c-0.184,0-0.382,0.127-0.595,0.382
		c-0.213,0.254-0.425,0.597-0.638,1.033c-0.213,0.433-0.466,1.139-0.762,2.117c-0.295,0.978-0.442,1.467-0.442,1.467
		s-0.09,0.455-0.271,1.361C30.677,29.261,30.569,30.057,30.535,30.743z"/>
	<path fill="#FFFFFF" d="M51.022,32.225c0.046,0.432,0.039,0.865-0.021,1.305c-0.06,0.438-0.184,0.912-0.373,1.42
		c-0.138,0.37-0.317,0.729-0.54,1.074c-0.222,0.346-0.474,0.666-0.759,0.96s-0.596,0.554-0.932,0.777
		c-0.337,0.225-0.69,0.397-1.06,0.516c-0.37,0.12-0.749,0.183-1.136,0.188c-0.388,0.006-0.773-0.062-1.156-0.206
		c-0.552-0.205-0.979-0.501-1.281-0.889c-0.302-0.388-0.506-0.822-0.613-1.305c-0.105-0.482-0.125-0.99-0.06-1.523
		c0.067-0.532,0.193-1.05,0.38-1.552c0.309-0.827,0.678-1.502,1.108-2.024c0.43-0.522,0.92-0.933,1.471-1.231
		c0.551-0.297,1.152-0.47,1.805-0.517c0.652-0.046,1.328,0.062,2.024,0.319c2.793,1.041,1.426,2.846,1.256,2.611L51.022,32.225z
		 M46.085,36.59c0.213,0.079,0.46,0.049,0.742-0.094c0.281-0.142,0.558-0.35,0.831-0.623c0.273-0.272,0.543-0.625,0.808-1.061
		c0.265-0.433,0.465-0.831,0.601-1.195c0.108-0.289,0.186-0.564,0.234-0.829s0.062-0.504,0.042-0.718
		c-0.02-0.215-0.08-0.402-0.177-0.561c-0.099-0.156-0.245-0.271-0.439-0.345c-0.257-0.096-0.543-0.077-0.857,0.056
		c-0.313,0.133-0.622,0.338-0.925,0.614c-0.303,0.276-0.582,0.604-0.836,0.979c-0.255,0.378-0.479,0.826-0.672,1.347
		c-0.099,0.264-0.167,0.521-0.202,0.771c-0.036,0.251-0.033,0.481,0.01,0.694c0.042,0.213,0.131,0.402,0.269,0.572
		S45.84,36.498,46.085,36.59z"/>
	<path fill="#FFFFFF" d="M35.935,36.973c-0.268-0.509-0.41-1.138-0.541-1.832c-0.13-0.695-0.195-1.426-0.195-2.19
		c0-0.657,0.097-1.534,0.29-2.63c0.193-1.098,0.29-1.645,0.29-1.645s0.146-0.548,0.438-1.643c0.293-1.096,0.585-1.974,0.88-2.636
		c0.294-0.662,0.614-1.28,0.958-1.855c0.345-0.575,0.706-1.076,1.085-1.502c0.379-0.428,0.774-0.763,1.187-1.008
		c0.413-0.243,0.832-0.366,1.258-0.366c0.311,0,0.566,0.059,0.768,0.178c0.202,0.118,0.36,0.274,0.476,0.468
		c0.115,0.194,0.196,0.415,0.243,0.66c0.048,0.246,0.07,0.496,0.07,0.751c0,0.632-0.074,1.277-0.224,1.933
		c-0.15,0.657-0.352,1.316-0.606,1.979c-0.254,0.664-0.548,1.329-0.882,1.995c-0.334,0.666-0.682,1.328-1.044,1.984
		c-0.362,0.655-0.725,1.303-1.091,1.938c-0.365,0.636-0.703,1.258-1.012,1.865c-0.033,0.067-0.069,0.155-0.105,0.264
		c-0.037,0.107-0.072,0.225-0.106,0.349c-0.034,0.126-0.067,0.259-0.101,0.401c-0.034,0.141-0.061,0.279-0.081,0.414v0.142
		c0,0.176,0.031,0.344,0.055,0.511c0.128,0.879,0.887,0.833,0.94,0.833c2.899,0.001,5.524-5.216,5.998-5.587l0.523,2.674
		c0,0-1.314,2.092-4.367,4.545C40.119,38.702,37.2,39.383,35.935,36.973z M37.761,30.743c0.302-0.54,0.623-1.147,0.961-1.822
		c0.34-0.675,0.66-1.37,0.962-2.086c0.302-0.715,0.564-1.43,0.786-2.141c0.222-0.712,0.362-1.375,0.423-1.991
		c0-0.196-0.005-0.362-0.014-0.501c-0.009-0.138-0.04-0.208-0.09-0.208c-0.184,0-0.383,0.127-0.595,0.382
		c-0.212,0.254-0.425,0.597-0.638,1.033c-0.212,0.433-0.466,1.139-0.761,2.117c-0.295,0.978-0.443,1.467-0.443,1.467
		s-0.089,0.455-0.27,1.361C37.902,29.261,37.795,30.057,37.761,30.743z"/>
</g>
<g>
	<path fill="#44C0C0" d="M78.764,33.255v3.549c0,0,0.043,5.584-6.066,5.584c-6.11,0-6.068-5.584-6.068-5.584V21.597
		c0,0-0.042-5.583,6.068-5.583c6.109,0,6.066,5.583,6.066,5.583v3.548h-4.256v-3.548c0,0,0.169-1.896-1.727-1.896
		c-1.602,0-1.602,1.896-1.602,1.896v15.207c0,0,0,1.895,1.602,1.895c1.896,0,1.727-1.895,1.727-1.895v-3.549H78.764z"/>
	<path fill="#44C0C0" d="M91.453,37.435c0,0,0.043,4.953-5.479,4.953c-5.479,0-5.436-5.059-5.436-5.059v-9.657
		c0,0-0.043-5.057,5.436-5.057c5.521,0,5.479,4.952,5.479,4.952V37.435z M85.975,25.706c-1.559,0-1.432,1.966-1.432,1.966v9.657
		c0,0-0.127,1.932,1.432,1.932c1.603,0,1.476-1.932,1.476-1.932v-9.657C87.45,27.672,87.577,25.706,85.975,25.706z"/>
	<path fill="#44C0C0" d="M104.773,26.969v15.135h-4.002V26.899c0-0.737-0.717-0.843-1.137-0.843c-0.844,0-1.604,0.914-1.604,0.914
		v15.136h-4.256v-19.21h4.256v1.615c0.338-0.175,2.066-1.896,3.541-1.896c1.518,0,2.445,1.018,2.865,2.142
		c0.674-0.421,2.4-2.142,3.879-2.142c2.273,0,3.201,2.177,3.201,3.758v15.733h-4.004V26.899c0-0.737-0.715-0.843-1.137-0.843
		C105.533,26.057,104.773,26.969,104.773,26.969z"/>
	<path fill="#44C0C0" d="M114.219,22.896h4.256v1.264c0,0,1.812-1.545,3.371-1.545c2.318,0,3.287,2.178,3.287,3.758v12.255
		c0,1.582-0.969,3.76-3.287,3.76c-1.559,0-3.371-1.547-3.371-1.547v7.865h-4.256V22.896z M118.475,37.89
		c0,0.562,0.633,1.158,1.264,1.158c0.633,0,1.139-0.49,1.139-1.158v-10.78c0-0.667-0.508-1.157-1.139-1.157
		c-0.59,0-1.264,0.491-1.264,1.157C118.475,31.464,118.475,34.204,118.475,37.89z"/>
	<path fill="#44C0C0" d="M138.285,37.435c0,0,0.041,4.953-5.479,4.953c-5.477,0-5.436-5.059-5.436-5.059v-9.657
		c0,0-0.041-5.057,5.436-5.057c5.52,0,5.479,4.952,5.479,4.952V37.435z M132.807,25.706c-1.559,0-1.432,1.966-1.432,1.966v9.657
		c0,0-0.127,1.932,1.432,1.932c1.602,0,1.477-1.932,1.477-1.932v-9.657C134.281,27.672,134.408,25.706,132.807,25.706z"/>
	<path fill="#44C0C0" d="M146.082,22.616c4.973-0.07,5.436,3.02,5.436,5.197h-3.961c0-0.913-0.043-2.248-1.391-2.248
		c-1.139,0.036-1.305,1.265-1.305,2.248c0,1.23,1.473,2.388,2.781,3.442c1.854,1.475,3.918,3.373,3.918,5.865
		c0,2.387-1.391,5.268-5.436,5.268c-5.184,0-5.941-3.793-5.941-5.865h3.959c0,1.018,0.211,2.914,1.982,2.914
		c1.221,0,1.473-1.193,1.473-2.316c0-1.158-1.348-2.354-2.652-3.406c-1.982-1.582-4.047-3.127-4.047-5.901
		C140.898,25.53,141.994,22.686,146.082,22.616z"/>
	<path fill="#44C0C0" d="M158.852,18.156v4.741h2.906v3.195h-2.906v9.553c0,1.193,0,3.158,1.348,3.158
		c0.717,0,1.559-0.139,1.559-0.139v3.477c0,0-0.928,0.246-2.273,0.246c-4.889,0-4.889-4.215-4.889-6.463v-9.834h-2.15v-3.195h2.15
		v-4.741h4.256V18.156z"/>
</g>
<g>
	<path fill="#FFFFFF" d="M14.856,29.828c0.637-0.57,1.869-1.57,2.741-1.498c0.08,0.008,0.17,0.016,0.271,0.046
		c0.1,0.031,0.196,0.087,0.286,0.169c0.09,0.083,0.166,0.196,0.226,0.344c0.06,0.146,0.09,0.335,0.09,0.566
		c0,0.465-0.063,0.918-0.19,1.356c-0.127,0.44-0.368,0.974-0.723,1.602s-0.594,1.17-0.718,1.627
		c-0.124,0.456-0.186,0.936-0.186,1.433c0,0.273,0.04,0.491,0.12,0.654c0.081,0.164,0.184,0.246,0.312,0.246
		c0.161,0,0.331-0.033,0.512-0.102c0.181-0.068,0.362-0.156,0.542-0.264c0.181-0.107,0.358-0.231,0.532-0.369
		c0.174-0.14,0.338-0.283,0.492-0.432c0.368-0.346,0.729-0.738,1.084-1.176l0.17,2.672c-0.121,0.088-0.273,0.198-0.457,0.33
		c-0.184,0.133-0.388,0.272-0.613,0.42c-0.225,0.146-0.467,0.297-0.728,0.447c-0.261,0.152-0.524,0.285-0.788,0.402
		c-0.264,0.115-0.529,0.211-0.793,0.287c-0.264,0.076-0.517,0.113-0.758,0.113c-0.377,0-0.704-0.095-0.981-0.282
		c-0.277-0.188-0.505-0.427-0.683-0.718c-0.179-0.29-0.312-0.607-0.401-0.952c-0.089-0.345-0.134-0.669-0.134-0.976
		c0-0.217,0.03-0.458,0.089-0.726c0.059-0.267,0.132-0.536,0.219-0.806c0.087-0.271,0.185-0.535,0.292-0.791
		c0.108-0.258,0.209-0.488,0.304-0.689c0.094-0.204,0.176-0.369,0.246-0.498c0.07-0.128,0.115-0.203,0.136-0.223l-0.211-0.03
		c-0.114,0.073-0.306,0.259-0.578,0.556c-0.271,0.299-0.577,0.674-0.919,1.127c-0.341,0.454-0.694,0.965-1.06,1.53
		c-0.365,0.565-0.694,1.15-0.989,1.753c-0.147,0.298-0.268,0.559-0.361,0.779c-0.094,0.222-0.186,0.4-0.276,0.535
		c-0.09,0.136-0.189,0.238-0.296,0.307c-0.107,0.07-0.244,0.104-0.412,0.104c-0.221,0-0.395-0.06-0.522-0.18
		c-0.127-0.118-0.224-0.277-0.292-0.475c-0.066-0.198-0.11-0.424-0.13-0.674c-0.021-0.252-0.03-0.51-0.03-0.774
		c0-0.46,0.005-1.062,0.015-1.806s0.042-1.569,0.096-2.475s0.151-1.844,0.293-2.814c0.142-0.97,0.283-1.936,0.423-2.896
		c0.141-0.961,0.35-1.875,0.628-2.744c0.278-0.868,0.617-1.632,1.016-2.292s0.866-1.186,1.402-1.574s1.153-0.583,1.85-0.583
		c0.361,0,0.657,0.054,0.888,0.162s0.416,0.258,0.552,0.454c0.137,0.196,0.233,0.429,0.286,0.702
		c0.054,0.273,0.081,0.578,0.081,0.915c0,0.5-0.07,1.055-0.21,1.664c-0.141,0.608-0.327,1.241-0.558,1.897
		c-0.231,0.655-0.494,1.319-0.788,1.992c-0.295,0.673-0.596,1.326-0.904,1.958S14.179,30.436,14.856,29.828z M13.76,26.252
		c0.395-1.025,0.682-1.888,0.859-2.591c0.178-0.703,0.267-1.222,0.267-1.556c0-0.509-0.072-0.763-0.214-0.763
		c-0.174,0-0.432,0.285-0.773,0.854c-0.341,0.568-0.743,1.395-1.205,2.479c-0.114,0.368-0.219,0.75-0.316,1.145
		s-0.174,0.789-0.231,1.183c-0.056,0.394-0.113,0.781-0.168,1.162s-0.107,0.739-0.155,1.076c-0.147,0.795-0.259,1.572-0.337,2.333
		c0.181-0.422,0.379-0.881,0.593-1.375c0.215-0.496,0.426-0.986,0.634-1.472c0.208-0.485,0.404-0.942,0.588-1.375
		C13.486,26.919,13.639,26.553,13.76,26.252z"/>
	<path fill="#FFFFFF" d="M23.587,38.702c-0.625,0-1.171-0.115-1.641-0.347c-0.469-0.232-0.859-0.545-1.172-0.936
		c-0.312-0.393-0.547-0.846-0.704-1.36c-0.156-0.514-0.234-1.054-0.234-1.618c0-0.371,0.069-0.812,0.209-1.324
		s0.285-0.966,0.435-1.362c0.149-0.397,0.338-0.774,0.564-1.135c0.227-0.36,0.491-0.677,0.794-0.951s0.643-0.492,1.019-0.654
		c0.376-0.161,0.794-0.243,1.253-0.243c0.375,0,0.724,0.061,1.045,0.182c0.321,0.12,0.602,0.289,0.839,0.506
		c0.238,0.219,0.424,0.48,0.558,0.788c0.134,0.307,0.202,0.651,0.202,1.032c0,0.406-0.136,0.861-0.408,1.365
		s-0.588,0.936-0.951,1.296c-0.362,0.36-0.793,0.681-1.293,0.962c-0.5,0.281-1.042,0.5-1.625,0.657
		c0.101,0.177,0.2,0.325,0.297,0.442s0.196,0.209,0.297,0.274s0.207,0.112,0.317,0.138c0.111,0.026,0.23,0.039,0.358,0.039
		c0.402,0,0.825-0.078,1.27-0.235s0.879-0.354,1.3-0.589c0.422-0.236,0.82-0.492,1.195-0.771c0.375-0.278,0.692-0.542,0.954-0.791
		l1.294,1.315c-0.589,0.627-1.214,1.183-1.877,1.665c-0.288,0.207-0.598,0.41-0.929,0.61c-0.331,0.199-0.68,0.377-1.044,0.533
		c-0.365,0.154-0.743,0.278-1.135,0.371C24.386,38.656,23.989,38.702,23.587,38.702z M22.247,33.92c0.242,0,0.505-0.061,0.791-0.182
		s0.551-0.276,0.796-0.467c0.246-0.189,0.486-0.443,0.721-0.766c0.235-0.32,0.353-0.586,0.353-0.795
		c0-0.295-0.056-0.536-0.166-0.727c-0.111-0.189-0.247-0.284-0.408-0.284c-0.289,0-0.536,0.052-0.741,0.157
		c-0.206,0.105-0.376,0.24-0.514,0.408c-0.138,0.166-0.249,0.355-0.333,0.568c-0.084,0.213-0.182,0.477-0.292,0.791
		c-0.111,0.312-0.173,0.572-0.187,0.775S22.247,33.776,22.247,33.92z"/>
	<path fill="#FFFFFF" d="M28.709,36.973c-0.267-0.509-0.41-1.138-0.54-1.832c-0.13-0.695-0.195-1.426-0.195-2.19
		c0-0.657,0.096-1.534,0.29-2.63c0.193-1.098,0.29-1.645,0.29-1.645s0.146-0.548,0.438-1.643c0.293-1.096,0.586-1.974,0.88-2.636
		c0.294-0.662,0.613-1.28,0.958-1.855c0.345-0.575,0.707-1.076,1.085-1.502c0.378-0.428,0.774-0.763,1.187-1.008
		c0.413-0.243,0.832-0.366,1.258-0.366c0.31,0,0.566,0.059,0.768,0.178c0.202,0.118,0.36,0.274,0.476,0.468
		c0.115,0.194,0.196,0.415,0.243,0.66c0.047,0.246,0.07,0.496,0.07,0.751c0,0.632-0.075,1.277-0.225,1.933
		c-0.149,0.657-0.351,1.316-0.605,1.979c-0.254,0.664-0.548,1.329-0.882,1.995c-0.333,0.666-0.682,1.328-1.043,1.984
		c-0.362,0.655-0.726,1.303-1.092,1.938c-0.365,0.636-0.702,1.258-1.011,1.865c-0.033,0.067-0.069,0.155-0.106,0.264
		c-0.037,0.107-0.072,0.225-0.105,0.349c-0.034,0.126-0.067,0.259-0.101,0.401c-0.033,0.141-0.061,0.279-0.08,0.414v0.142
		c0,0.176,0.031,0.344,0.055,0.511c0.128,0.879,0.887,0.833,0.941,0.833c2.898,0.001,5.524-5.216,5.997-5.587l0.523,2.674
		c0,0-1.315,2.092-4.366,4.545C32.893,38.702,29.974,39.383,28.709,36.973z M30.535,30.743c0.302-0.54,0.623-1.147,0.961-1.822
		c0.34-0.675,0.66-1.37,0.962-2.086c0.303-0.715,0.564-1.43,0.786-2.141c0.222-0.712,0.362-1.375,0.423-1.991
		c0-0.196-0.004-0.362-0.014-0.501c-0.009-0.138-0.04-0.208-0.09-0.208c-0.184,0-0.382,0.127-0.595,0.382
		c-0.213,0.254-0.425,0.597-0.638,1.033c-0.213,0.433-0.466,1.139-0.762,2.117c-0.295,0.978-0.442,1.467-0.442,1.467
		s-0.09,0.455-0.271,1.361C30.677,29.261,30.569,30.057,30.535,30.743z"/>
	<path fill="#FFFFFF" d="M51.022,32.225c0.046,0.432,0.039,0.865-0.021,1.305c-0.06,0.438-0.184,0.912-0.373,1.42
		c-0.138,0.37-0.317,0.729-0.54,1.074c-0.222,0.346-0.474,0.666-0.759,0.96s-0.596,0.554-0.932,0.777
		c-0.337,0.225-0.69,0.397-1.06,0.516c-0.37,0.12-0.749,0.183-1.136,0.188c-0.388,0.006-0.773-0.062-1.156-0.206
		c-0.552-0.205-0.979-0.501-1.281-0.889c-0.302-0.388-0.506-0.822-0.613-1.305c-0.105-0.482-0.125-0.99-0.06-1.523
		c0.067-0.532,0.193-1.05,0.38-1.552c0.309-0.827,0.678-1.502,1.108-2.024c0.43-0.522,0.92-0.933,1.471-1.231
		c0.551-0.297,1.152-0.47,1.805-0.517c0.652-0.046,1.328,0.062,2.024,0.319c2.793,1.041,1.426,2.846,1.256,2.611L51.022,32.225z
		 M46.085,36.59c0.213,0.079,0.46,0.049,0.742-0.094c0.281-0.142,0.558-0.35,0.831-0.623c0.273-0.272,0.543-0.625,0.808-1.061
		c0.265-0.433,0.465-0.831,0.601-1.195c0.108-0.289,0.186-0.564,0.234-0.829s0.062-0.504,0.042-0.718
		c-0.02-0.215-0.08-0.402-0.177-0.561c-0.099-0.156-0.245-0.271-0.439-0.345c-0.257-0.096-0.543-0.077-0.857,0.056
		c-0.313,0.133-0.622,0.338-0.925,0.614c-0.303,0.276-0.582,0.604-0.836,0.979c-0.255,0.378-0.479,0.826-0.672,1.347
		c-0.099,0.264-0.167,0.521-0.202,0.771c-0.036,0.251-0.033,0.481,0.01,0.694c0.042,0.213,0.131,0.402,0.269,0.572
		S45.84,36.498,46.085,36.59z"/>
	<path fill="#FFFFFF" d="M35.935,36.973c-0.268-0.509-0.41-1.138-0.541-1.832c-0.13-0.695-0.195-1.426-0.195-2.19
		c0-0.657,0.097-1.534,0.29-2.63c0.193-1.098,0.29-1.645,0.29-1.645s0.146-0.548,0.438-1.643c0.293-1.096,0.585-1.974,0.88-2.636
		c0.294-0.662,0.614-1.28,0.958-1.855c0.345-0.575,0.706-1.076,1.085-1.502c0.379-0.428,0.774-0.763,1.187-1.008
		c0.413-0.243,0.832-0.366,1.258-0.366c0.311,0,0.566,0.059,0.768,0.178c0.202,0.118,0.36,0.274,0.476,0.468
		c0.115,0.194,0.196,0.415,0.243,0.66c0.048,0.246,0.07,0.496,0.07,0.751c0,0.632-0.074,1.277-0.224,1.933
		c-0.15,0.657-0.352,1.316-0.606,1.979c-0.254,0.664-0.548,1.329-0.882,1.995c-0.334,0.666-0.682,1.328-1.044,1.984
		c-0.362,0.655-0.725,1.303-1.091,1.938c-0.365,0.636-0.703,1.258-1.012,1.865c-0.033,0.067-0.069,0.155-0.105,0.264
		c-0.037,0.107-0.072,0.225-0.106,0.349c-0.034,0.126-0.067,0.259-0.101,0.401c-0.034,0.141-0.061,0.279-0.081,0.414v0.142
		c0,0.176,0.031,0.344,0.055,0.511c0.128,0.879,0.887,0.833,0.94,0.833c2.899,0.001,5.524-5.216,5.998-5.587l0.523,2.674
		c0,0-1.314,2.092-4.367,4.545C40.119,38.702,37.2,39.383,35.935,36.973z M37.761,30.743c0.302-0.54,0.623-1.147,0.961-1.822
		c0.34-0.675,0.66-1.37,0.962-2.086c0.302-0.715,0.564-1.43,0.786-2.141c0.222-0.712,0.362-1.375,0.423-1.991
		c0-0.196-0.005-0.362-0.014-0.501c-0.009-0.138-0.04-0.208-0.09-0.208c-0.184,0-0.383,0.127-0.595,0.382
		c-0.212,0.254-0.425,0.597-0.638,1.033c-0.212,0.433-0.466,1.139-0.761,2.117c-0.295,0.978-0.443,1.467-0.443,1.467
		s-0.089,0.455-0.27,1.361C37.902,29.261,37.795,30.057,37.761,30.743z"/>
</g>
</svg>
