<?xml version="1.0" encoding="utf-8"?>
<!-- Generator: Adobe Illustrator 15.1.0, SVG Export Plug-In . SVG Version: 6.00 Build 0)  -->
<!DOCTYPE svg PUBLIC "-//W3C//DTD SVG 1.1//EN" "http://www.w3.org/Graphics/SVG/1.1/DTD/svg11.dtd">
<svg version="1.1" id="Layer_1" xmlns="http://www.w3.org/2000/svg" xmlns:xlink="http://www.w3.org/1999/xlink" x="0px" y="0px"
	 width="161.758px" height="58.119px" viewBox="0 0 161.758 58.119" enable-background="new 0 0 161.758 58.119"
	 xml:space="preserve">
<g>
	<g>
		<path fill="#646464" d="M78.382,33.23v3.549c0,0,0.043,5.584-6.066,5.584s-6.068-5.584-6.068-5.584V21.573
			c0,0-0.041-5.583,6.068-5.583s6.066,5.583,6.066,5.583v3.548h-4.256v-3.548c0,0,0.168-1.896-1.727-1.896
			c-1.603,0-1.603,1.896-1.603,1.896v15.207c0,0,0,1.896,1.603,1.896c1.895,0,1.727-1.896,1.727-1.896V33.23H78.382z"/>
		<path fill="#646464" d="M91.072,37.41c0,0,0.043,4.953-5.479,4.953c-5.479,0-5.437-5.059-5.437-5.059v-9.657
			c0,0-0.043-5.057,5.437-5.057c5.521,0,5.479,4.952,5.479,4.952V37.41z M85.593,25.682c-1.559,0-1.432,1.966-1.432,1.966v9.657
			c0,0-0.127,1.932,1.432,1.932c1.604,0,1.477-1.932,1.477-1.932v-9.657C87.068,27.647,87.195,25.682,85.593,25.682z"/>
		<path fill="#646464" d="M104.391,26.944V42.08h-4.002V26.875c0-0.737-0.717-0.843-1.138-0.843c-0.844,0-1.604,0.914-1.604,0.914
			v15.137h-4.256v-19.21h4.256v1.615c0.338-0.175,2.066-1.896,3.541-1.896c1.518,0,2.445,1.018,2.865,2.142
			c0.674-0.421,2.4-2.142,3.879-2.142c2.273,0,3.201,2.177,3.201,3.758v15.733h-4.004V26.875c0-0.737-0.715-0.843-1.137-0.843
			C105.152,26.033,104.391,26.944,104.391,26.944z"/>
		<path fill="#646464" d="M113.837,22.872h4.256v1.264c0,0,1.812-1.545,3.371-1.545c2.318,0,3.287,2.178,3.287,3.758v12.255
			c0,1.582-0.969,3.76-3.287,3.76c-1.559,0-3.371-1.547-3.371-1.547v7.865h-4.256V22.872z M118.093,37.865
			c0,0.562,0.633,1.158,1.264,1.158c0.633,0,1.139-0.49,1.139-1.158v-10.78c0-0.667-0.508-1.157-1.139-1.157
			c-0.59,0-1.264,0.491-1.264,1.157C118.093,31.439,118.093,34.18,118.093,37.865z"/>
		<path fill="#646464" d="M137.904,37.41c0,0,0.041,4.953-5.479,4.953c-5.478,0-5.437-5.059-5.437-5.059v-9.657
			c0,0-0.041-5.057,5.437-5.057c5.521,0,5.479,4.952,5.479,4.952V37.41z M132.425,25.682c-1.559,0-1.432,1.966-1.432,1.966v9.657
			c0,0-0.127,1.932,1.432,1.932c1.602,0,1.477-1.932,1.477-1.932v-9.657C133.9,27.647,134.027,25.682,132.425,25.682z"/>
		<path fill="#646464" d="M145.701,22.592c4.973-0.07,5.436,3.02,5.436,5.197h-3.961c0-0.913-0.043-2.248-1.391-2.248
			c-1.14,0.036-1.306,1.265-1.306,2.248c0,1.23,1.474,2.388,2.781,3.442c1.854,1.475,3.918,3.373,3.918,5.865
			c0,2.387-1.392,5.268-5.437,5.268c-5.184,0-5.94-3.793-5.94-5.865h3.959c0,1.019,0.211,2.914,1.981,2.914
			c1.222,0,1.474-1.192,1.474-2.315c0-1.158-1.349-2.354-2.652-3.406c-1.981-1.582-4.047-3.127-4.047-5.901
			C140.516,25.506,141.613,22.662,145.701,22.592z"/>
		<path fill="#646464" d="M158.47,18.132v4.741h2.906v3.195h-2.906v9.554c0,1.192,0,3.157,1.348,3.157
			c0.717,0,1.559-0.139,1.559-0.139v3.478c0,0-0.928,0.246-2.272,0.246c-4.889,0-4.889-4.216-4.889-6.464v-9.834h-2.149v-3.195
			h2.149v-4.741h4.256L158.47,18.132L158.47,18.132z"/>
	</g>
	<g>
		<g>
			<path fill="#44C0C0" d="M0.57,30.682c0.91,15.87,14.514,27.998,30.381,27.096c3.209-0.188,6.238-0.892,9.059-2.012
				c1.372-0.549,6.643,0.777,8.923,0.975c0.91,0.082,1.458-0.422,0.955-0.686c-4.161-2.188-3.823-3.4-2.169-4.541
				c6.33-4.346,10.814-15.807,10.326-24.125C57.135,11.511,43.535-0.619,27.658,0.294C11.791,1.204-0.336,14.809,0.57,30.682z"/>
		</g>
		<g>
			<path fill="#FFFFFF" d="M14.474,29.804c0.637-0.57,1.869-1.57,2.741-1.498c0.079,0.008,0.17,0.016,0.271,0.046
				c0.1,0.031,0.196,0.087,0.286,0.169c0.091,0.083,0.166,0.196,0.226,0.344c0.061,0.146,0.091,0.335,0.091,0.566
				c0,0.465-0.063,0.918-0.19,1.356c-0.127,0.439-0.367,0.974-0.723,1.602s-0.594,1.17-0.719,1.627
				c-0.123,0.456-0.186,0.936-0.186,1.434c0,0.272,0.04,0.49,0.12,0.653c0.081,0.164,0.185,0.246,0.312,0.246
				c0.162,0,0.332-0.033,0.513-0.103c0.181-0.067,0.362-0.155,0.542-0.264c0.181-0.107,0.357-0.23,0.531-0.369
				c0.175-0.14,0.338-0.283,0.492-0.432c0.369-0.346,0.729-0.738,1.084-1.176l0.17,2.672c-0.121,0.088-0.272,0.197-0.457,0.33
				c-0.184,0.133-0.388,0.271-0.612,0.42c-0.226,0.146-0.468,0.297-0.728,0.447c-0.262,0.151-0.524,0.285-0.789,0.401
				c-0.264,0.115-0.529,0.212-0.793,0.287c-0.264,0.076-0.517,0.113-0.758,0.113c-0.377,0-0.703-0.095-0.98-0.282
				s-0.506-0.427-0.684-0.718c-0.179-0.29-0.312-0.607-0.4-0.952c-0.09-0.346-0.135-0.669-0.135-0.977
				c0-0.217,0.03-0.457,0.09-0.726c0.059-0.267,0.131-0.536,0.219-0.806c0.087-0.271,0.186-0.535,0.292-0.791
				c0.108-0.258,0.209-0.488,0.304-0.689c0.094-0.203,0.176-0.369,0.246-0.498c0.07-0.128,0.115-0.203,0.137-0.223l-0.212-0.03
				c-0.114,0.073-0.306,0.259-0.577,0.556c-0.271,0.3-0.578,0.675-0.92,1.127c-0.341,0.455-0.693,0.966-1.06,1.531
				c-0.365,0.564-0.694,1.149-0.989,1.752c-0.146,0.299-0.268,0.56-0.361,0.779c-0.094,0.223-0.186,0.4-0.275,0.535
				c-0.09,0.136-0.189,0.238-0.297,0.307c-0.106,0.07-0.243,0.104-0.411,0.104c-0.222,0-0.396-0.06-0.522-0.181
				c-0.127-0.117-0.224-0.276-0.291-0.475c-0.066-0.197-0.111-0.424-0.131-0.674c-0.021-0.252-0.029-0.51-0.029-0.773
				c0-0.461,0.004-1.062,0.015-1.807c0.01-0.744,0.042-1.568,0.096-2.475s0.151-1.844,0.293-2.814
				c0.142-0.97,0.283-1.936,0.423-2.896c0.141-0.961,0.35-1.875,0.629-2.744c0.277-0.868,0.616-1.632,1.016-2.292
				c0.398-0.66,0.865-1.186,1.402-1.574c0.535-0.388,1.152-0.583,1.85-0.583c0.361,0,0.656,0.054,0.888,0.162
				c0.231,0.108,0.416,0.258,0.552,0.454c0.137,0.196,0.233,0.429,0.287,0.702c0.053,0.273,0.08,0.578,0.08,0.915
				c0,0.5-0.07,1.055-0.21,1.664c-0.141,0.608-0.327,1.241-0.558,1.897c-0.231,0.655-0.494,1.319-0.788,1.992
				c-0.295,0.673-0.597,1.326-0.904,1.958C13.671,29.766,13.797,30.412,14.474,29.804z M13.378,26.228
				c0.395-1.025,0.682-1.888,0.859-2.591s0.267-1.222,0.267-1.556c0-0.509-0.072-0.763-0.214-0.763
				c-0.174,0-0.432,0.285-0.773,0.854c-0.341,0.568-0.742,1.395-1.205,2.479c-0.113,0.368-0.219,0.75-0.316,1.145
				c-0.096,0.395-0.174,0.789-0.23,1.183s-0.113,0.781-0.168,1.162s-0.107,0.739-0.154,1.076c-0.148,0.795-0.26,1.572-0.338,2.333
				c0.182-0.423,0.379-0.882,0.594-1.375c0.215-0.496,0.426-0.986,0.633-1.472c0.209-0.485,0.404-0.942,0.588-1.375
				C13.104,26.895,13.257,26.528,13.378,26.228z"/>
			<path fill="#FFFFFF" d="M23.205,38.678c-0.625,0-1.17-0.115-1.641-0.348c-0.469-0.231-0.859-0.545-1.172-0.936
				c-0.312-0.393-0.547-0.846-0.704-1.359c-0.155-0.515-0.233-1.055-0.233-1.619c0-0.371,0.068-0.812,0.209-1.323
				c0.14-0.513,0.285-0.966,0.435-1.362s0.338-0.773,0.563-1.135c0.228-0.36,0.492-0.678,0.795-0.951
				c0.303-0.274,0.643-0.492,1.019-0.654c0.376-0.161,0.794-0.243,1.253-0.243c0.375,0,0.725,0.061,1.045,0.182
				c0.321,0.12,0.602,0.289,0.84,0.506c0.237,0.219,0.424,0.48,0.557,0.788c0.135,0.308,0.203,0.651,0.203,1.032
				c0,0.406-0.137,0.861-0.408,1.365s-0.588,0.936-0.951,1.295c-0.361,0.36-0.793,0.682-1.293,0.963s-1.042,0.5-1.625,0.656
				c0.102,0.178,0.199,0.325,0.297,0.442s0.196,0.209,0.297,0.274c0.102,0.064,0.207,0.111,0.317,0.138s0.229,0.039,0.358,0.039
				c0.401,0,0.824-0.078,1.27-0.235c0.445-0.156,0.879-0.354,1.3-0.589c0.422-0.235,0.82-0.491,1.195-0.771
				c0.375-0.278,0.692-0.543,0.954-0.791l1.293,1.314c-0.588,0.627-1.213,1.184-1.877,1.665c-0.287,0.207-0.598,0.41-0.928,0.61
				c-0.332,0.199-0.681,0.377-1.045,0.533c-0.365,0.153-0.742,0.277-1.135,0.371C24.004,38.632,23.607,38.678,23.205,38.678z
				 M21.865,33.896c0.242,0,0.506-0.062,0.791-0.183c0.287-0.12,0.551-0.275,0.797-0.467c0.246-0.188,0.485-0.442,0.721-0.766
				c0.234-0.32,0.354-0.586,0.354-0.795c0-0.295-0.057-0.536-0.166-0.727c-0.111-0.189-0.248-0.284-0.408-0.284
				c-0.289,0-0.537,0.052-0.742,0.157c-0.205,0.104-0.375,0.24-0.514,0.408c-0.138,0.166-0.248,0.354-0.332,0.567
				s-0.183,0.478-0.293,0.791c-0.111,0.312-0.172,0.571-0.187,0.774S21.865,33.752,21.865,33.896z"/>
			<path fill="#FFFFFF" d="M28.328,36.949c-0.268-0.51-0.41-1.139-0.541-1.832c-0.129-0.695-0.194-1.427-0.194-2.19
				c0-0.657,0.096-1.534,0.29-2.63c0.193-1.098,0.29-1.646,0.29-1.646s0.146-0.548,0.438-1.643c0.293-1.096,0.586-1.974,0.879-2.636
				c0.295-0.662,0.613-1.28,0.959-1.855c0.344-0.575,0.707-1.076,1.084-1.502c0.379-0.428,0.774-0.763,1.188-1.008
				c0.413-0.243,0.832-0.366,1.258-0.366c0.311,0,0.566,0.059,0.768,0.178c0.203,0.118,0.36,0.274,0.477,0.468
				c0.115,0.194,0.195,0.415,0.243,0.66c0.047,0.246,0.069,0.496,0.069,0.751c0,0.632-0.074,1.277-0.225,1.933
				c-0.148,0.657-0.352,1.316-0.605,1.979c-0.254,0.664-0.547,1.329-0.881,1.995s-0.683,1.328-1.043,1.984
				c-0.363,0.654-0.727,1.303-1.093,1.938c-0.364,0.637-0.702,1.258-1.011,1.865c-0.033,0.066-0.068,0.155-0.105,0.264
				c-0.037,0.107-0.072,0.226-0.105,0.35c-0.034,0.126-0.066,0.259-0.102,0.4c-0.033,0.142-0.061,0.279-0.08,0.414v0.143
				c0,0.176,0.031,0.344,0.056,0.511c0.128,0.879,0.887,0.833,0.94,0.833c2.898,0.001,5.524-5.216,5.998-5.587l0.522,2.674
				c0,0-1.315,2.092-4.366,4.545C32.511,38.678,29.592,39.358,28.328,36.949z M30.154,30.719c0.301-0.54,0.623-1.146,0.961-1.822
				c0.34-0.675,0.66-1.37,0.961-2.086c0.304-0.715,0.564-1.43,0.787-2.141c0.221-0.712,0.361-1.375,0.422-1.991
				c0-0.196-0.004-0.362-0.014-0.501c-0.009-0.138-0.04-0.208-0.09-0.208c-0.184,0-0.382,0.127-0.596,0.382
				c-0.213,0.254-0.424,0.597-0.637,1.033c-0.213,0.433-0.467,1.139-0.763,2.117c-0.295,0.978-0.442,1.467-0.442,1.467
				s-0.09,0.455-0.271,1.361C30.294,29.236,30.187,30.033,30.154,30.719z"/>
			<path fill="#FFFFFF" d="M50.64,32.201c0.046,0.432,0.039,0.864-0.021,1.305c-0.06,0.438-0.184,0.912-0.373,1.42
				c-0.137,0.369-0.316,0.729-0.539,1.074s-0.475,0.666-0.76,0.959c-0.285,0.295-0.596,0.555-0.932,0.777
				c-0.337,0.225-0.689,0.397-1.061,0.516c-0.369,0.121-0.748,0.184-1.135,0.188c-0.389,0.007-0.773-0.062-1.156-0.206
				c-0.553-0.205-0.979-0.501-1.281-0.889c-0.303-0.389-0.506-0.822-0.613-1.305c-0.105-0.482-0.125-0.99-0.061-1.523
				c0.068-0.532,0.193-1.05,0.381-1.552c0.309-0.827,0.678-1.503,1.107-2.024s0.92-0.933,1.471-1.23
				c0.552-0.297,1.152-0.47,1.806-0.518c0.651-0.046,1.328,0.062,2.024,0.319c2.793,1.041,1.426,2.846,1.256,2.61L50.64,32.201z
				 M45.703,36.565c0.213,0.079,0.461,0.05,0.742-0.094c0.281-0.142,0.559-0.351,0.832-0.623c0.272-0.272,0.543-0.625,0.807-1.062
				c0.266-0.433,0.466-0.83,0.602-1.194c0.107-0.289,0.186-0.564,0.234-0.829c0.048-0.266,0.062-0.504,0.041-0.719
				c-0.02-0.215-0.079-0.401-0.176-0.561c-0.1-0.156-0.246-0.271-0.439-0.345c-0.257-0.097-0.543-0.077-0.857,0.056
				c-0.312,0.133-0.621,0.338-0.925,0.614c-0.303,0.276-0.582,0.604-0.836,0.979c-0.255,0.377-0.479,0.826-0.672,1.347
				c-0.099,0.264-0.167,0.521-0.202,0.771c-0.035,0.252-0.033,0.481,0.01,0.694s0.131,0.401,0.27,0.572
				C45.27,36.343,45.458,36.474,45.703,36.565z"/>
			<path fill="#FFFFFF" d="M35.553,36.949c-0.269-0.51-0.41-1.139-0.541-1.832c-0.13-0.695-0.194-1.427-0.194-2.19
				c0-0.657,0.096-1.534,0.289-2.63c0.193-1.098,0.29-1.646,0.29-1.646s0.146-0.548,0.438-1.643c0.293-1.096,0.584-1.974,0.88-2.636
				c0.294-0.662,0.614-1.28,0.958-1.855c0.345-0.575,0.706-1.076,1.085-1.502c0.379-0.428,0.774-0.763,1.187-1.008
				c0.414-0.243,0.832-0.366,1.258-0.366c0.312,0,0.566,0.059,0.769,0.178c0.202,0.118,0.36,0.274,0.476,0.468
				s0.196,0.415,0.243,0.66c0.048,0.246,0.07,0.496,0.07,0.751c0,0.632-0.074,1.277-0.224,1.933
				c-0.15,0.657-0.353,1.316-0.606,1.979c-0.254,0.664-0.548,1.329-0.882,1.995s-0.682,1.328-1.044,1.984
				c-0.362,0.654-0.726,1.303-1.091,1.938c-0.365,0.637-0.703,1.258-1.012,1.865c-0.033,0.066-0.07,0.155-0.105,0.264
				c-0.037,0.107-0.072,0.226-0.106,0.35c-0.034,0.126-0.067,0.259-0.101,0.4c-0.034,0.142-0.061,0.279-0.081,0.414v0.143
				c0,0.176,0.03,0.344,0.055,0.511c0.128,0.879,0.888,0.833,0.94,0.833c2.898,0.001,5.523-5.216,5.998-5.587l0.523,2.674
				c0,0-1.314,2.092-4.367,4.545C39.738,38.678,36.818,39.358,35.553,36.949z M37.379,30.719c0.302-0.54,0.622-1.146,0.961-1.822
				c0.34-0.675,0.659-1.37,0.962-2.086c0.302-0.715,0.564-1.43,0.786-2.141c0.222-0.712,0.362-1.375,0.423-1.991
				c0-0.196-0.005-0.362-0.014-0.501c-0.01-0.138-0.041-0.208-0.09-0.208c-0.185,0-0.383,0.127-0.596,0.382
				c-0.212,0.254-0.425,0.597-0.638,1.033c-0.212,0.433-0.466,1.139-0.761,2.117s-0.443,1.467-0.443,1.467s-0.089,0.455-0.27,1.361
				C37.52,29.236,37.414,30.033,37.379,30.719z"/>
		</g>
	</g>
</g>
</svg>
