<?xml version="1.0" encoding="utf-8"?>
<!-- Generator: Adobe Illustrator 15.1.0, SVG Export Plug-In . SVG Version: 6.00 Build 0)  -->
<!DOCTYPE svg PUBLIC "-//W3C//DTD SVG 1.1//EN" "http://www.w3.org/Graphics/SVG/1.1/DTD/svg11.dtd">
<svg version="1.1" id="Layer_1" xmlns="http://www.w3.org/2000/svg" xmlns:xlink="http://www.w3.org/1999/xlink" x="0px" y="0px"
	 width="45.083px" height="45.082px" viewBox="0 0 45.083 45.082" enable-background="new 0 0 45.083 45.082" xml:space="preserve">
<path fill="#44C0C0" d="M22.542,0.049c-12.422,0-22.493,10.07-22.493,22.492S10.12,45.033,22.542,45.033s22.492-10.07,22.492-22.492
	S34.964,0.049,22.542,0.049z M32.349,18.463c0.01,0.217,0.016,0.434,0.016,0.654c0,6.688-5.091,14.396-14.398,14.396
	c-2.857,0-5.518-0.838-7.756-2.273c0.396,0.047,0.799,0.07,1.206,0.07c2.371,0,4.554-0.809,6.286-2.166
	c-2.215-0.041-4.084-1.504-4.729-3.514c0.311,0.059,0.627,0.092,0.953,0.092c0.462,0,0.908-0.062,1.332-0.178
	c-2.314-0.465-4.059-2.51-4.059-4.961c0-0.023,0-0.043,0-0.064c0.683,0.379,1.463,0.605,2.293,0.633
	c-1.357-0.908-2.252-2.457-2.252-4.213c0-0.928,0.25-1.797,0.686-2.543c2.496,3.061,6.225,5.074,10.43,5.287
	c-0.087-0.371-0.132-0.758-0.132-1.154c0-2.793,2.267-5.059,5.062-5.059c1.454,0,2.77,0.615,3.693,1.598
	c1.152-0.227,2.235-0.648,3.213-1.229c-0.378,1.182-1.18,2.174-2.225,2.799c1.023-0.121,1.999-0.393,2.906-0.795
	C34.196,16.857,33.337,17.75,32.349,18.463z"/>
</svg>
