<?xml version="1.0" encoding="utf-8"?>
<!-- Generator: Adobe Illustrator 15.1.0, SVG Export Plug-In . SVG Version: 6.00 Build 0)  -->
<!DOCTYPE svg PUBLIC "-//W3C//DTD SVG 1.1//EN" "http://www.w3.org/Graphics/SVG/1.1/DTD/svg11.dtd">
<svg version="1.1" id="Layer_1" xmlns="http://www.w3.org/2000/svg" xmlns:xlink="http://www.w3.org/1999/xlink" x="0px" y="0px"
	 viewBox="0 0 54.772 56.745" enable-background="new 0 0 54.772 56.745" xml:space="preserve">
<g>
	<g>
		<path fill="#FFFFEB" d="M2.992,21.423c0,0,9.783,2.101,9.992,6.861c0.205,4.762-1.041,10.852-4.508,12.679
			c-3.466,1.828,1.511,3.55,1.511,3.55s14.003,3.94,20.075-2.685c6.07-6.623,9.508-4.247,10.571-9.345
			c1.062-5.1-1.614-2.212-3.518-2.883c-1.902-0.673-12.196-3.496-8.126-11.022c4.074-7.525,6.395-5.078,6.6-8.4
			c0.203-3.318-29.756,7.475-29.756,7.475S-1.565,19.938,2.992,21.423z"/>
		<path fill="#449FA0" d="M7.356,42.13c0.823,0.574,3.102,2.854,7.659,2.803c5.772-0.068,3.846-2.042,6.498-1.823
			c2.651,0.221,5.995-1.743,7.87-3.35c1.876-1.604,2.492-0.793,4.953-1.974s7.304-4.992,5.895-7.355
			c-1.409-2.362,1.063-1.936,1.143-0.486c0.076,1.449-1.319,12.415-11.585,16.783c-10.265,4.368-16.367,1.336-22.318-3.066
			C5.014,41.846,6.493,41.524,7.356,42.13z"/>
		<path fill="#449FA0" d="M20.242,25.443c0.275,0.782,0.302,1.484,0.062,1.568c-0.241,0.086-0.658-0.479-0.933-1.261
			c-0.274-0.784-0.302-1.488-0.062-1.569C19.551,24.098,19.968,24.662,20.242,25.443z"/>
		
			<ellipse transform="matrix(0.9432 -0.3323 0.3323 0.9432 -7.3391 8.6812)" fill="#449FA0" cx="21.711" cy="25.797" rx="0.463" ry="1.501"/>
		<path fill="#F2EDDC" d="M2.992,21.423c0,0,3.475,0.744,6.326,2.355c0.715,0.403,3.502,2.387,5.871,0.819
			c7.204-4.764,11.233-1.276,13.801-6.02c4.074-7.525,6.395-5.078,6.6-8.4c0.203-3.318-29.756,7.475-29.756,7.475
			S-1.565,19.938,2.992,21.423z"/>
		<path fill="#449FA0" d="M1.464,14.193c0,0-2.65,5.167-0.943,6.329c1.705,1.16,2.668-0.062,4.556-0.056
			c1.89,0.006,5.917,1.526,11.684-2.95c5.769-4.474,7.112-1.95,9.979-2.494c2.866-0.545,3.504-1.896,5.592-3.32
			c2.086-1.428,3.016-2.092,4.368-2.398c1.352-0.306,1.955-1.103,0.218-2.651c-1.736-1.551-5.569-5.174-17.195-3.058
			C8.093,5.711,2.944,8.812,1.464,14.193z"/>
		<path fill="#448C94" d="M11.757,8.465c0,0,6.937-1.109,9.831-2.855c2.893-1.749-1.847-0.54-1.847-0.54s-4.119,0.136-6.53,1.43
			C10.8,7.796,10.319,8.727,11.757,8.465z"/>
		<path fill="#3D5953" d="M17.103,7.336c-0.278-0.052,0.021-3.04,0.313-3.771c0.296-0.733,0.142-2.282,0.009-2.832
			c-0.133-0.551,0.674-0.793,1.027-0.437c0.354,0.353,0.815,0.967,0.654,1.538c-0.16,0.575-1.267,3.671-0.636,4.92
			C18.471,6.755,17.762,7.46,17.103,7.336z"/>
	</g>
	<g>
		<path fill="#FFE1C0" d="M33.713,47.754l-0.63,0.905l0.63,1.938c0,0,0.781-0.554,2.122-0.354C37.176,50.441,39,49.938,39,49.938
			v-2.781c0,0-3.214-0.645-3.414-0.693C35.389,46.413,33.713,47.754,33.713,47.754z"/>
		<path fill="#FFF2DE" d="M24.035,36.237c0,0,3.32,3.866,4.312,4.663l1.242-1.492c0,0,0.1-0.396,0.746,0.398
			c0.646,0.794,2.781,3.824,2.633,8.594c0,0,0.197,0.497,0.744,1.143c0.547,0.645,1.217,1.693-0.311,3.777l-2.82,0.965l-6.547-0.77
			l-1.746-4.022c0,0-1.392-8.494-1.441-8.692C20.797,40.601,24.035,36.237,24.035,36.237z"/>
		<path fill="#448C94" d="M24.357,34.524c0,0-6.903,0.721-8.892,5.555c-1.986,4.836-1.73,7.878,0.589,10.461
			c2.317,2.583,7.612,6.754,17.348,2.78c0,0-2.253,0.727-3.048,0.197c-0.795-0.53-3.048-0.928-4.439-0.729
			c-1.39,0.198-1.722,0.074-1.722,0.074L24.061,53h1.655c0,0,0.093-2.012,0.511-3.205l-1.371-0.921c0,0,0.661-3.008,0.264-4.036
			c-0.397-1.027-0.331-1.868-0.331-2.465s-0.123-2.344-1.021-2.677c0,0,0.086-0.923,0.285-1.442c0,0-0.497-2.763,0.771-2.986
			C24.822,35.268,24.118,34.855,24.357,34.524z"/>
		<path fill="#448C94" d="M33.713,47.703c0,0,0.348-0.097,1.044-0.396c0.695-0.299,0.944-0.249,1.143,0.198
			c0.199,0.445,1.44,1.54,2.135,1.54c0.695,0,0.448,1.092,1.144,1.142c0.695,0.051,2.235-0.198,3.576,1.392c0,0,0.994,0,1.788,0.397
			c0.795,0.397,2.732-0.795,3.378-0.548c0.646,0.25,2.683,1.094,2.335,2.684c-0.349,1.591-0.943,2.087-0.497,2.087
			c0.448,0,1.143,0.247,1.64,0.546c0,0,0.944-0.645,1.342-0.645c0,0,2.781-4.62,1.837-8.298c-0.944-3.673-2.086-5.712-5.365-6.804
			c-3.278-1.093-6.805-0.099-8.593,0.943C38.829,42.985,35.452,45.072,33.713,47.703z"/>
	</g>
</g>
</svg>
